<svg width="114" height="84" viewBox="0 0 114 84" fill="none" xmlns="http://www.w3.org/2000/svg">
<g clip-path="url(#clip0_33_620)">
<path d="M35.3998 83.5678C29.1358 83.5678 23.7718 82.5598 19.3078 80.5438C14.8438 78.4558 11.2078 75.6478 8.3998 72.1198C5.6638 68.5918 3.6118 64.5238 2.2438 59.9158C0.947805 55.2358 0.299805 50.3038 0.299805 45.1198V38.9638C0.299805 31.7638 1.5598 25.2478 4.0798 19.4158C6.5998 13.5838 10.4518 8.9398 15.6358 5.4838C20.8198 2.0278 27.4078 0.299805 35.3998 0.299805C43.3918 0.299805 49.9438 2.0278 55.0558 5.4838C60.2398 8.9398 64.0918 13.5838 66.6118 19.4158C69.1318 25.2478 70.3918 31.7638 70.3918 38.9638V45.1198C70.3918 50.3038 69.7078 55.2358 68.3398 59.9158C67.0438 64.5238 64.9918 68.5918 62.1838 72.1198C59.4478 75.6478 55.8478 78.4558 51.3838 80.5438C46.9918 82.5598 41.6638 83.5678 35.3998 83.5678ZM35.3998 67.2598C41.2318 67.2598 45.5518 65.2438 48.3598 61.2118C51.2398 57.1078 52.6798 50.7718 52.6798 42.2038C52.6798 33.1318 51.2038 26.6158 48.2518 22.6558C45.3718 18.6238 41.0878 16.6078 35.3998 16.6078C29.5678 16.6078 25.2118 18.6238 22.3318 22.6558C19.4518 26.6158 18.0118 33.0598 18.0118 41.9878C18.0118 50.6278 19.4158 56.9998 22.2238 61.1038C25.1038 65.2078 29.4958 67.2598 35.3998 67.2598ZM95.5229 81.5158V14.3398L100.275 18.0118H80.0789V2.6758H113.127V81.5158H95.5229Z" fill="url(#paint0_linear_33_620)" fill-opacity="0.1"/>
<path d="M19.308 80.544L19.1809 80.8158L19.1846 80.8174L19.308 80.544ZM8.4 72.12L8.16292 72.3039L8.16528 72.3068L8.4 72.12ZM2.244 59.916L1.95484 59.9961L1.95641 60.0014L2.244 59.916ZM55.056 5.484L54.888 5.73254L54.8896 5.73361L55.056 5.484ZM68.34 59.916L68.0521 59.8319L68.0513 59.8348L68.34 59.916ZM62.184 72.12L61.9493 71.9332L61.947 71.9362L62.184 72.12ZM51.384 80.544L51.5092 80.8167L51.5112 80.8158L51.384 80.544ZM48.36 61.212L48.1145 61.0397L48.1139 61.0406L48.36 61.212ZM48.252 22.656L48.0079 22.8304L48.0115 22.8353L48.252 22.656ZM22.332 22.656L22.5747 22.8325L22.5762 22.8304L22.332 22.656ZM22.224 61.104L21.9764 61.2734L21.9785 61.2764L22.224 61.104ZM35.4 83.568V83.268C29.1672 83.268 23.8475 82.2649 19.4315 80.2706L19.308 80.544L19.1846 80.8174C23.6966 82.8551 29.1049 83.868 35.4 83.868V83.568ZM19.308 80.544L19.4351 80.2723C15.0091 78.202 11.4113 75.4217 8.63473 71.9332L8.4 72.12L8.16528 72.3068C11.0048 75.8744 14.679 78.71 19.1809 80.8158L19.308 80.544ZM8.4 72.12L8.63707 71.9362C5.92557 68.4398 3.88982 64.4057 2.5316 59.8306L2.244 59.916L1.95641 60.0014C3.33418 64.6423 5.40242 68.7443 8.16292 72.3039L8.4 72.12ZM2.244 59.916L2.53312 59.836C1.24481 55.1837 0.6 50.2788 0.6 45.12H0.3H0C0 50.3293 0.65115 55.2883 1.95484 59.9961L2.244 59.916ZM0.3 45.12H0.6V38.964H0.3H0V45.12H0.3ZM0.3 38.964H0.6C0.6 31.7995 1.85366 25.3248 4.35539 19.535L4.08 19.416L3.80461 19.297C1.26635 25.1713 0 31.7285 0 38.964H0.3ZM4.08 19.416L4.35539 19.535C6.85291 13.7551 10.6676 9.15684 15.8025 5.73361L15.636 5.484L15.4696 5.23438C10.2365 8.72316 6.3471 13.413 3.80461 19.297L4.08 19.416ZM15.636 5.484L15.8025 5.73361C20.925 2.31862 27.4506 0.6 35.4 0.6V0.3V0C27.3655 0 20.7151 1.73738 15.4696 5.23438L15.636 5.484ZM35.4 0.3V0.6C43.3497 0.6 49.8384 2.31872 54.888 5.73254L55.056 5.484L55.2241 5.23547C50.0497 1.7373 43.4344 0 35.4 0V0.3ZM55.056 5.484L54.8896 5.73361C60.0245 9.15684 63.8391 13.7551 66.3367 19.535L66.612 19.416L66.8874 19.297C64.345 13.413 60.4556 8.72316 55.2225 5.23438L55.056 5.484ZM66.612 19.416L66.3367 19.535C68.8384 25.3248 70.092 31.7995 70.092 38.964H70.392H70.692C70.692 31.7285 69.4257 25.1713 66.8874 19.297L66.612 19.416ZM70.392 38.964H70.092V45.12H70.392H70.692V38.964H70.392ZM70.392 45.12H70.092C70.092 50.2773 69.4116 55.1809 68.0521 59.8319L68.34 59.916L68.628 60.0002C70.0045 55.2912 70.692 50.3307 70.692 45.12H70.392ZM68.34 59.916L68.0513 59.8348C66.7654 64.4068 64.7309 68.4383 61.9493 71.9332L62.184 72.12L62.4188 72.3068C65.2532 68.7457 67.3227 64.6413 68.6288 59.9972L68.34 59.916ZM62.184 72.12L61.947 71.9362C59.2431 75.4228 55.6824 78.2023 51.2569 80.2723L51.384 80.544L51.5112 80.8158C56.0137 78.7097 59.653 75.8733 62.4211 72.3039L62.184 72.12ZM51.384 80.544L51.2589 80.2714C46.916 82.2649 41.6331 83.268 35.4 83.268V83.568V83.868C41.695 83.868 47.0681 82.8552 51.5092 80.8167L51.384 80.544ZM35.4 67.26V67.56C41.3092 67.56 45.7311 65.5118 48.6062 61.3835L48.36 61.212L48.1139 61.0406C45.373 64.9762 41.1549 66.96 35.4 66.96V67.26ZM48.36 61.212L48.6056 61.3844C51.5383 57.2053 52.98 50.7946 52.98 42.204H52.68H52.38C52.38 50.7494 50.9418 57.0108 48.1145 61.0397L48.36 61.212ZM52.68 42.204H52.98C52.98 33.1145 51.5041 26.5166 48.4926 22.4767L48.252 22.656L48.0115 22.8353C50.904 26.7155 52.38 33.1496 52.38 42.204H52.68ZM48.252 22.656L48.4962 22.4817C45.5509 18.3583 41.1684 16.308 35.4 16.308V16.608V16.908C41.0076 16.908 45.1932 18.8898 48.0079 22.8304L48.252 22.656ZM35.4 16.608V16.308C29.4907 16.308 25.0347 18.3561 22.0879 22.4817L22.332 22.656L22.5762 22.8304C25.3894 18.8919 29.6454 16.908 35.4 16.908V16.608ZM22.332 22.656L22.0894 22.4796C19.1522 26.5183 17.712 33.0421 17.712 41.988H18.012H18.312C18.312 33.0779 19.7519 26.7138 22.5747 22.8325L22.332 22.656ZM18.012 41.988H17.712C17.712 50.649 19.1172 57.0947 21.9764 61.2734L22.224 61.104L22.4716 60.9346C19.7148 56.9054 18.312 50.607 18.312 41.988H18.012ZM22.224 61.104L21.9785 61.2764C24.9252 65.4754 29.4182 67.56 35.4 67.56V67.26V66.96C29.5739 66.96 25.2829 64.9407 22.4696 60.9317L22.224 61.104ZM95.5231 81.516H95.2231V81.816H95.5231V81.516ZM95.5231 14.34L95.7066 14.1026L95.2231 13.7291V14.34H95.5231ZM100.275 18.012V18.312H101.154L100.459 17.7746L100.275 18.012ZM80.0791 18.012H79.7791V18.312H80.0791V18.012ZM80.0791 2.676V2.376H79.7791V2.676H80.0791ZM113.127 2.676H113.427V2.376H113.127V2.676ZM113.127 81.516V81.816H113.427V81.516H113.127ZM95.5231 81.516H95.8231V14.34H95.5231H95.2231V81.516H95.5231ZM95.5231 14.34L95.3397 14.5774L100.092 18.2494L100.275 18.012L100.459 17.7746L95.7066 14.1026L95.5231 14.34ZM100.275 18.012V17.712H80.0791V18.012V18.312H100.275V18.012ZM80.0791 18.012H80.3791V2.676H80.0791H79.7791V18.012H80.0791ZM80.0791 2.676V2.976H113.127V2.676V2.376H80.0791V2.676ZM113.127 2.676H112.827V81.516H113.127H113.427V2.676H113.127ZM113.127 81.516V81.216H95.5231V81.516V81.816H113.127V81.516Z" fill="#0A0A0A"/>
</g>
<defs>
<linearGradient id="paint0_linear_33_620" x1="58.6438" y1="-23.4842" x2="58.6438" y2="112.516" gradientUnits="userSpaceOnUse">
<stop stop-color="#AD73FF"/>
<stop offset="1" stop-color="#3949E0"/>
</linearGradient>
<clipPath id="clip0_33_620">
<rect width="114" height="84" fill="white"/>
</clipPath>
</defs>
</svg>
