<svg width="140" height="84" viewBox="0 0 140 84" fill="none" xmlns="http://www.w3.org/2000/svg">
<g clip-path="url(#clip0_33_624)">
<path d="M35.3998 83.5678C29.1358 83.5678 23.7718 82.5598 19.3078 80.5438C14.8438 78.4558 11.2078 75.6478 8.3998 72.1198C5.6638 68.5918 3.6118 64.5238 2.2438 59.9158C0.947805 55.2358 0.299805 50.3038 0.299805 45.1198V38.9638C0.299805 31.7638 1.5598 25.2478 4.0798 19.4158C6.5998 13.5838 10.4518 8.9398 15.6358 5.4838C20.8198 2.0278 27.4078 0.299805 35.3998 0.299805C43.3918 0.299805 49.9438 2.0278 55.0558 5.4838C60.2398 8.9398 64.0918 13.5838 66.6118 19.4158C69.1318 25.2478 70.3918 31.7638 70.3918 38.9638V45.1198C70.3918 50.3038 69.7078 55.2358 68.3398 59.9158C67.0438 64.5238 64.9918 68.5918 62.1838 72.1198C59.4478 75.6478 55.8478 78.4558 51.3838 80.5438C46.9918 82.5598 41.6638 83.5678 35.3998 83.5678ZM35.3998 67.2598C41.2318 67.2598 45.5518 65.2438 48.3598 61.2118C51.2398 57.1078 52.6798 50.7718 52.6798 42.2038C52.6798 33.1318 51.2038 26.6158 48.2518 22.6558C45.3718 18.6238 41.0878 16.6078 35.3998 16.6078C29.5678 16.6078 25.2118 18.6238 22.3318 22.6558C19.4518 26.6158 18.0118 33.0598 18.0118 41.9878C18.0118 50.6278 19.4158 56.9998 22.2238 61.1038C25.1038 65.2078 29.4958 67.2598 35.3998 67.2598ZM82.9949 81.5158V65.3158C82.9949 61.9318 83.5349 58.9798 84.6149 56.4598C85.7669 53.9398 87.5669 51.7078 90.0149 49.7638C92.4629 47.7478 95.7029 45.8758 99.7349 44.1478L112.479 38.6398C115.719 37.2718 118.095 35.5798 119.607 33.5638C121.191 31.5478 121.983 28.9918 121.983 25.8958C121.983 22.7278 121.011 20.1358 119.067 18.1198C117.123 16.1038 114.279 15.0958 110.535 15.0958C106.791 15.0958 103.947 16.1398 102.003 18.2278C100.059 20.3158 99.0869 23.1238 99.0869 26.6518H81.9149C81.9149 21.6838 82.9949 17.2198 85.1549 13.2598C87.3149 9.2278 90.5189 6.0598 94.7669 3.7558C99.0149 1.4518 104.271 0.299805 110.535 0.299805C116.799 0.299805 122.019 1.4158 126.195 3.6478C130.443 5.8798 133.647 8.8678 135.807 12.6118C138.039 16.3558 139.155 20.5678 139.155 25.2478V26.5438C139.155 32.5918 137.499 37.5958 134.187 41.5558C130.875 45.4438 125.763 48.8998 118.851 51.9238L106.215 57.4318C104.055 58.3678 102.507 59.3398 101.571 60.3478C100.707 61.3558 100.275 62.7238 100.275 64.4518V69.8518L96.0629 66.2878H139.263V81.5158H82.9949Z" fill="url(#paint0_linear_33_624)" fill-opacity="0.1"/>
<path d="M19.308 80.544L19.1809 80.8158L19.1846 80.8174L19.308 80.544ZM8.4 72.12L8.16292 72.3039L8.16528 72.3068L8.4 72.12ZM2.244 59.916L1.95484 59.9961L1.95641 60.0014L2.244 59.916ZM55.056 5.484L54.888 5.73254L54.8896 5.73361L55.056 5.484ZM68.34 59.916L68.0521 59.8319L68.0513 59.8348L68.34 59.916ZM62.184 72.12L61.9493 71.9332L61.947 71.9362L62.184 72.12ZM51.384 80.544L51.5092 80.8167L51.5112 80.8158L51.384 80.544ZM48.36 61.212L48.1145 61.0397L48.1139 61.0406L48.36 61.212ZM48.252 22.656L48.0079 22.8304L48.0115 22.8353L48.252 22.656ZM22.332 22.656L22.5747 22.8325L22.5762 22.8304L22.332 22.656ZM22.224 61.104L21.9764 61.2734L21.9785 61.2764L22.224 61.104ZM35.4 83.568V83.268C29.1672 83.268 23.8475 82.2649 19.4315 80.2706L19.308 80.544L19.1846 80.8174C23.6966 82.8551 29.1049 83.868 35.4 83.868V83.568ZM19.308 80.544L19.4351 80.2723C15.0091 78.202 11.4113 75.4217 8.63473 71.9332L8.4 72.12L8.16528 72.3068C11.0048 75.8744 14.679 78.71 19.1809 80.8158L19.308 80.544ZM8.4 72.12L8.63707 71.9362C5.92557 68.4398 3.88982 64.4057 2.5316 59.8306L2.244 59.916L1.95641 60.0014C3.33418 64.6423 5.40242 68.7443 8.16292 72.3039L8.4 72.12ZM2.244 59.916L2.53312 59.836C1.24481 55.1837 0.6 50.2788 0.6 45.12H0.3H0C0 50.3293 0.65115 55.2883 1.95484 59.9961L2.244 59.916ZM0.3 45.12H0.6V38.964H0.3H0V45.12H0.3ZM0.3 38.964H0.6C0.6 31.7995 1.85366 25.3248 4.35539 19.535L4.08 19.416L3.80461 19.297C1.26635 25.1713 0 31.7285 0 38.964H0.3ZM4.08 19.416L4.35539 19.535C6.85291 13.7551 10.6676 9.15684 15.8025 5.73361L15.636 5.484L15.4696 5.23438C10.2365 8.72316 6.3471 13.413 3.80461 19.297L4.08 19.416ZM15.636 5.484L15.8025 5.73361C20.925 2.31862 27.4506 0.6 35.4 0.6V0.3V0C27.3655 0 20.7151 1.73738 15.4696 5.23438L15.636 5.484ZM35.4 0.3V0.6C43.3497 0.6 49.8384 2.31872 54.888 5.73254L55.056 5.484L55.2241 5.23547C50.0497 1.7373 43.4344 0 35.4 0V0.3ZM55.056 5.484L54.8896 5.73361C60.0245 9.15684 63.8391 13.7551 66.3367 19.535L66.612 19.416L66.8874 19.297C64.345 13.413 60.4556 8.72316 55.2225 5.23438L55.056 5.484ZM66.612 19.416L66.3367 19.535C68.8384 25.3248 70.092 31.7995 70.092 38.964H70.392H70.692C70.692 31.7285 69.4257 25.1713 66.8874 19.297L66.612 19.416ZM70.392 38.964H70.092V45.12H70.392H70.692V38.964H70.392ZM70.392 45.12H70.092C70.092 50.2773 69.4116 55.1809 68.0521 59.8319L68.34 59.916L68.628 60.0002C70.0045 55.2912 70.692 50.3307 70.692 45.12H70.392ZM68.34 59.916L68.0513 59.8348C66.7654 64.4068 64.7309 68.4383 61.9493 71.9332L62.184 72.12L62.4188 72.3068C65.2532 68.7457 67.3227 64.6413 68.6288 59.9972L68.34 59.916ZM62.184 72.12L61.947 71.9362C59.2431 75.4228 55.6824 78.2023 51.2569 80.2723L51.384 80.544L51.5112 80.8158C56.0137 78.7097 59.653 75.8733 62.4211 72.3039L62.184 72.12ZM51.384 80.544L51.2589 80.2714C46.916 82.2649 41.6331 83.268 35.4 83.268V83.568V83.868C41.695 83.868 47.0681 82.8552 51.5092 80.8167L51.384 80.544ZM35.4 67.26V67.56C41.3092 67.56 45.7311 65.5118 48.6062 61.3835L48.36 61.212L48.1139 61.0406C45.373 64.9762 41.1549 66.96 35.4 66.96V67.26ZM48.36 61.212L48.6056 61.3844C51.5383 57.2053 52.98 50.7946 52.98 42.204H52.68H52.38C52.38 50.7494 50.9418 57.0108 48.1145 61.0397L48.36 61.212ZM52.68 42.204H52.98C52.98 33.1145 51.5041 26.5166 48.4926 22.4767L48.252 22.656L48.0115 22.8353C50.904 26.7155 52.38 33.1496 52.38 42.204H52.68ZM48.252 22.656L48.4962 22.4817C45.5509 18.3583 41.1684 16.308 35.4 16.308V16.608V16.908C41.0076 16.908 45.1932 18.8898 48.0079 22.8304L48.252 22.656ZM35.4 16.608V16.308C29.4907 16.308 25.0347 18.3561 22.0879 22.4817L22.332 22.656L22.5762 22.8304C25.3894 18.8919 29.6454 16.908 35.4 16.908V16.608ZM22.332 22.656L22.0894 22.4796C19.1522 26.5183 17.712 33.0421 17.712 41.988H18.012H18.312C18.312 33.0779 19.7519 26.7138 22.5747 22.8325L22.332 22.656ZM18.012 41.988H17.712C17.712 50.649 19.1172 57.0947 21.9764 61.2734L22.224 61.104L22.4716 60.9346C19.7148 56.9054 18.312 50.607 18.312 41.988H18.012ZM22.224 61.104L21.9785 61.2764C24.9252 65.4754 29.4182 67.56 35.4 67.56V67.26V66.96C29.5739 66.96 25.2829 64.9407 22.4696 60.9317L22.224 61.104ZM82.9951 81.516H82.6951V81.816H82.9951V81.516ZM84.6151 56.46L84.3422 56.3353L84.3394 56.3418L84.6151 56.46ZM90.0151 49.764L90.2017 49.999L90.2058 49.9956L90.0151 49.764ZM112.479 38.64L112.362 38.3636L112.36 38.3646L112.479 38.64ZM119.607 33.564L119.371 33.3786L119.367 33.384L119.607 33.564ZM99.0871 26.652V26.952H99.3871V26.652H99.0871ZM81.9151 26.652H81.6151V26.952H81.9151V26.652ZM85.1551 13.26L85.4185 13.4037L85.4196 13.4017L85.1551 13.26ZM126.195 3.648L126.054 3.91259L126.056 3.91358L126.195 3.648ZM135.807 12.612L135.547 12.762L135.549 12.7656L135.807 12.612ZM134.187 41.556L134.416 41.7506L134.417 41.7485L134.187 41.556ZM106.215 57.432L106.334 57.7073L106.335 57.707L106.215 57.432ZM101.571 60.348L101.351 60.1437L101.343 60.1528L101.571 60.348ZM100.275 69.852L100.081 70.081L100.575 70.4989V69.852H100.275ZM96.0631 66.288V65.988H95.2442L95.8694 66.517L96.0631 66.288ZM139.263 66.288H139.563V65.988H139.263V66.288ZM139.263 81.516V81.816H139.563V81.516H139.263ZM82.9951 81.516H83.2951V65.316H82.9951H82.6951V81.516H82.9951ZM82.9951 65.316H83.2951C83.2951 61.9634 83.8302 59.0532 84.8909 56.5782L84.6151 56.46L84.3394 56.3418C83.2401 58.9068 82.6951 61.9006 82.6951 65.316H82.9951ZM84.6151 56.46L84.888 56.5848C86.0179 54.113 87.7859 51.9173 90.2017 49.999L90.0151 49.764L89.8286 49.5291C87.3483 51.4987 85.5163 53.767 84.3422 56.3353L84.6151 56.46ZM90.0151 49.764L90.2058 49.9956C92.6253 48.0031 95.8382 46.1445 99.8533 44.4238L99.7351 44.148L99.617 43.8723C95.5679 45.6075 92.301 47.4929 89.8244 49.5324L90.0151 49.764ZM99.7351 44.148L99.8533 44.4238L112.598 38.9154L112.479 38.64L112.36 38.3646L99.617 43.8723L99.7351 44.148ZM112.479 38.64L112.596 38.9164C115.866 37.5355 118.293 35.816 119.847 33.744L119.607 33.564L119.367 33.384C117.897 35.344 115.572 37.0085 112.362 38.3636L112.479 38.64ZM119.607 33.564L119.843 33.7494C121.477 31.6702 122.283 29.0448 122.283 25.896H121.983H121.683C121.683 28.9392 120.906 31.4257 119.371 33.3786L119.607 33.564ZM121.983 25.896H122.283C122.283 22.6614 121.288 19.9912 119.283 17.9118L119.067 18.12L118.851 18.3283C120.734 20.2809 121.683 22.7947 121.683 25.896H121.983ZM119.067 18.12L119.283 17.9118C117.265 15.8194 114.332 14.796 110.535 14.796V15.096V15.396C114.226 15.396 116.981 16.3886 118.851 18.3283L119.067 18.12ZM110.535 15.096V14.796C106.735 14.796 103.801 15.8572 101.784 18.0236L102.003 18.228L102.223 18.4324C104.094 16.4229 106.847 15.396 110.535 15.396V15.096ZM102.003 18.228L101.784 18.0236C99.7763 20.1795 98.7871 23.067 98.7871 26.652H99.0871H99.3871C99.3871 23.1811 100.342 20.4525 102.223 18.4324L102.003 18.228ZM99.0871 26.652V26.352H81.9151V26.652V26.952H99.0871V26.652ZM81.9151 26.652H82.2151C82.2151 21.729 83.2849 17.3153 85.4185 13.4037L85.1551 13.26L84.8918 13.1164C82.7054 17.1248 81.6151 21.639 81.6151 26.652H81.9151ZM85.1551 13.26L85.4196 13.4017C87.5503 9.42432 90.7106 6.29743 94.9102 4.01971L94.7671 3.756L94.6241 3.49229C90.3276 5.82258 87.08 9.03168 84.8907 13.1184L85.1551 13.26ZM94.7671 3.756L94.9102 4.01971C99.1032 1.74555 104.307 0.6 110.535 0.6V0.3V0C104.236 0 98.9271 1.15845 94.6241 3.49229L94.7671 3.756ZM110.535 0.3V0.6C116.765 0.6 121.933 1.71014 126.054 3.91259L126.195 3.648L126.337 3.38342C122.105 1.12187 116.833 0 110.535 0V0.3ZM126.195 3.648L126.056 3.91358C130.259 6.12218 133.419 9.07248 135.547 12.762L135.807 12.612L136.067 12.4621C133.876 8.66362 130.627 5.63782 126.335 3.38243L126.195 3.648ZM135.807 12.612L135.549 12.7656C137.752 16.4598 138.855 20.618 138.855 25.248H139.155H139.455C139.455 20.5181 138.327 16.2523 136.065 12.4584L135.807 12.612ZM139.155 25.248H138.855V26.544H139.155H139.455V25.248H139.155ZM139.155 26.544H138.855C138.855 32.5343 137.216 37.4665 133.957 41.3636L134.187 41.556L134.417 41.7485C137.782 37.7255 139.455 32.6497 139.455 26.544H139.155ZM134.187 41.556L133.959 41.3615C130.687 45.2023 125.62 48.6354 118.731 51.6492L118.851 51.924L118.971 52.199C125.907 49.1647 131.063 45.6857 134.416 41.7506L134.187 41.556ZM118.851 51.924L118.731 51.6492L106.095 57.157L106.215 57.432L106.335 57.707L118.971 52.199L118.851 51.924ZM106.215 57.432L106.096 57.1568C103.921 58.0992 102.329 59.091 101.351 60.1437L101.571 60.348L101.791 60.5522C102.685 59.5889 104.189 58.6369 106.334 57.7073L106.215 57.432ZM101.571 60.348L101.343 60.1528C100.42 61.2298 99.9751 62.6744 99.9751 64.452H100.275H100.575C100.575 62.7736 100.994 61.4822 101.799 60.5433L101.571 60.348ZM100.275 64.452H99.9751V69.852H100.275H100.575V64.452H100.275ZM100.275 69.852L100.469 69.623L96.2569 66.059L96.0631 66.288L95.8694 66.517L100.081 70.081L100.275 69.852ZM96.0631 66.288V66.588H139.263V66.288V65.988H96.0631V66.288ZM139.263 66.288H138.963V81.516H139.263H139.563V66.288H139.263ZM139.263 81.516V81.216H82.9951V81.516V81.816H139.263V81.516Z" fill="#0A0A0A"/>
</g>
<defs>
<linearGradient id="paint0_linear_33_624" x1="69.6438" y1="-23.4842" x2="69.6438" y2="112.516" gradientUnits="userSpaceOnUse">
<stop stop-color="#AD73FF"/>
<stop offset="1" stop-color="#3949E0"/>
</linearGradient>
<clipPath id="clip0_33_624">
<rect width="140" height="84" fill="white"/>
</clipPath>
</defs>
</svg>
