<svg width="195" height="66" viewBox="0 0 195 66" fill="none" xmlns="http://www.w3.org/2000/svg">
<g clip-path="url(#clip0_33_845)">
<path d="M1.738 62.582V51.102C1.738 48.5874 2.12067 46.4007 2.886 44.542C3.706 42.6834 5.018 41.0434 6.822 39.622C8.68067 38.146 11.1133 36.752 14.12 35.44L24.288 30.93C26.8026 29.782 28.716 28.388 30.028 26.748C31.3946 25.0534 32.078 22.894 32.078 20.27C32.078 17.3727 31.2033 15.0767 29.454 13.382C27.7593 11.6327 25.3266 10.758 22.156 10.758C18.9853 10.758 16.5253 11.6327 14.776 13.382C13.0813 15.1314 12.234 17.564 12.234 20.68H1C1 16.9627 1.79267 13.628 3.378 10.676C4.96333 7.66933 7.314 5.31867 10.43 3.624C13.546 1.87466 17.4546 1 22.156 1C26.8573 1 30.766 1.84733 33.882 3.542C36.998 5.23667 39.3486 7.50533 40.934 10.348C42.5193 13.136 43.312 16.252 43.312 19.696V20.762C43.312 25.2447 42.0546 28.9894 39.54 31.996C37.0253 34.948 33.3353 37.5174 28.47 39.704L18.302 44.214C16.3886 45.034 15.0493 45.9087 14.284 46.838C13.5186 47.7127 13.136 48.9154 13.136 50.446V55.694L10.348 52.66H43.558V62.582H1.738ZM78.8961 64.14C74.1948 64.14 70.2041 63.3747 66.9241 61.844C63.6441 60.2587 60.9654 58.1267 58.8881 55.448C56.8108 52.7147 55.2801 49.5987 54.2961 46.1C53.3668 42.5467 52.9021 38.8294 52.9021 34.948V30.356C52.9021 24.8347 53.8314 19.86 55.6901 15.432C57.5488 11.004 60.3914 7.50533 64.2181 4.936C68.0448 2.312 72.9374 1 78.8961 1C84.8001 1 89.6655 2.312 93.4921 4.936C97.3188 7.50533 100.134 11.004 101.938 15.432C103.797 19.86 104.726 24.8347 104.726 30.356V34.948C104.726 38.8294 104.234 42.5467 103.25 46.1C102.321 49.5987 100.817 52.7147 98.7401 55.448C96.7175 58.1267 94.0661 60.2587 90.7861 61.844C87.5061 63.3747 83.5428 64.14 78.8961 64.14ZM78.8961 53.48C83.7615 53.48 87.3421 51.8127 89.6381 48.478C91.9341 45.0887 93.0821 39.8407 93.0821 32.734C93.0821 25.19 91.9068 19.8054 89.5561 16.58C87.2054 13.3 83.6521 11.66 78.8961 11.66C74.0854 11.66 70.4774 13.3 68.0721 16.58C65.7214 19.8054 64.5461 25.1354 64.5461 32.57C64.5461 39.7314 65.7214 45.0067 68.0721 48.396C70.4228 51.7854 74.0308 53.48 78.8961 53.48ZM124.969 62.582V9.938L128.577 12.726H112.751V2.722H136.531V62.582H124.969ZM171.119 64.14C166.417 64.14 162.372 63.2107 158.983 61.352C155.648 59.4934 153.079 57.0334 151.275 53.972C149.525 50.856 148.651 47.4667 148.651 43.804H159.885C159.885 45.8814 160.349 47.7127 161.279 49.298C162.263 50.8834 163.602 52.1407 165.297 53.07C166.991 53.9447 168.959 54.382 171.201 54.382C173.551 54.382 175.574 53.89 177.269 52.906C178.963 51.922 180.248 50.5827 181.123 48.888C182.052 47.1934 182.517 45.2527 182.517 43.066C182.517 40.934 182.052 39.0207 181.123 37.326C180.248 35.5767 178.963 34.21 177.269 33.226C175.629 32.1874 173.633 31.668 171.283 31.668C169.315 31.668 167.456 32.0507 165.707 32.816C163.957 33.5814 162.591 34.5927 161.607 35.85H150.865L153.899 2.722H188.585V12.644H158.983L163.083 9.446L161.115 30.11L158.327 29.29C159.912 27.486 161.853 25.9827 164.149 24.78C166.445 23.5774 169.342 22.976 172.841 22.976C177.269 22.976 181.041 23.878 184.157 25.682C187.273 27.486 189.651 29.8914 191.291 32.898C192.931 35.85 193.751 39.0754 193.751 42.574V43.64C193.751 47.1934 192.876 50.528 191.127 53.644C189.377 56.76 186.808 59.302 183.419 61.27C180.084 63.1834 175.984 64.14 171.119 64.14Z" fill="url(#paint0_linear_33_845)" fill-opacity="0.1"/>
<mask id="mask0_33_845" style="mask-type:luminance" maskUnits="userSpaceOnUse" x="-1" y="-1" width="197" height="67">
<path d="M195.408 -0.417969H-0.591797V65.582H195.408V-0.417969Z" fill="white"/>
<path d="M1.738 62.582V51.102C1.738 48.5874 2.12067 46.4007 2.886 44.542C3.706 42.6834 5.018 41.0434 6.822 39.622C8.68067 38.146 11.1133 36.752 14.12 35.44L24.288 30.93C26.8026 29.782 28.716 28.388 30.028 26.748C31.3946 25.0534 32.078 22.894 32.078 20.27C32.078 17.3727 31.2033 15.0767 29.454 13.382C27.7593 11.6327 25.3266 10.758 22.156 10.758C18.9853 10.758 16.5253 11.6327 14.776 13.382C13.0813 15.1314 12.234 17.564 12.234 20.68H1C1 16.9627 1.79267 13.628 3.378 10.676C4.96333 7.66933 7.314 5.31867 10.43 3.624C13.546 1.87466 17.4546 1 22.156 1C26.8573 1 30.766 1.84733 33.882 3.542C36.998 5.23667 39.3486 7.50533 40.934 10.348C42.5193 13.136 43.312 16.252 43.312 19.696V20.762C43.312 25.2447 42.0546 28.9894 39.54 31.996C37.0253 34.948 33.3353 37.5174 28.47 39.704L18.302 44.214C16.3886 45.034 15.0493 45.9087 14.284 46.838C13.5186 47.7127 13.136 48.9154 13.136 50.446V55.694L10.348 52.66H43.558V62.582H1.738ZM78.8961 64.14C74.1948 64.14 70.2041 63.3747 66.9241 61.844C63.6441 60.2587 60.9654 58.1267 58.8881 55.448C56.8108 52.7147 55.2801 49.5987 54.2961 46.1C53.3668 42.5467 52.9021 38.8294 52.9021 34.948V30.356C52.9021 24.8347 53.8314 19.86 55.6901 15.432C57.5488 11.004 60.3914 7.50533 64.2181 4.936C68.0448 2.312 72.9374 1 78.8961 1C84.8001 1 89.6655 2.312 93.4921 4.936C97.3188 7.50533 100.134 11.004 101.938 15.432C103.797 19.86 104.726 24.8347 104.726 30.356V34.948C104.726 38.8294 104.234 42.5467 103.25 46.1C102.321 49.5987 100.817 52.7147 98.7401 55.448C96.7175 58.1267 94.0661 60.2587 90.7861 61.844C87.5061 63.3747 83.5428 64.14 78.8961 64.14ZM78.8961 53.48C83.7615 53.48 87.3421 51.8127 89.6381 48.478C91.9341 45.0887 93.0821 39.8407 93.0821 32.734C93.0821 25.19 91.9068 19.8054 89.5561 16.58C87.2054 13.3 83.6521 11.66 78.8961 11.66C74.0854 11.66 70.4774 13.3 68.0721 16.58C65.7214 19.8054 64.5461 25.1354 64.5461 32.57C64.5461 39.7314 65.7214 45.0067 68.0721 48.396C70.4228 51.7854 74.0308 53.48 78.8961 53.48ZM124.969 62.582V9.938L128.577 12.726H112.751V2.722H136.531V62.582H124.969ZM171.119 64.14C166.417 64.14 162.372 63.2107 158.983 61.352C155.648 59.4934 153.079 57.0334 151.275 53.972C149.525 50.856 148.651 47.4667 148.651 43.804H159.885C159.885 45.8814 160.349 47.7127 161.279 49.298C162.263 50.8834 163.602 52.1407 165.297 53.07C166.991 53.9447 168.959 54.382 171.201 54.382C173.551 54.382 175.574 53.89 177.269 52.906C178.963 51.922 180.248 50.5827 181.123 48.888C182.052 47.1934 182.517 45.2527 182.517 43.066C182.517 40.934 182.052 39.0207 181.123 37.326C180.248 35.5767 178.963 34.21 177.269 33.226C175.629 32.1874 173.633 31.668 171.283 31.668C169.315 31.668 167.456 32.0507 165.707 32.816C163.957 33.5814 162.591 34.5927 161.607 35.85H150.865L153.899 2.722H188.585V12.644H158.983L163.083 9.446L161.115 30.11L158.327 29.29C159.912 27.486 161.853 25.9827 164.149 24.78C166.445 23.5774 169.342 22.976 172.841 22.976C177.269 22.976 181.041 23.878 184.157 25.682C187.273 27.486 189.651 29.8914 191.291 32.898C192.931 35.85 193.751 39.0754 193.751 42.574V43.64C193.751 47.1934 192.876 50.528 191.127 53.644C189.377 56.76 186.808 59.302 183.419 61.27C180.084 63.1834 175.984 64.14 171.119 64.14Z" fill="black"/>
</mask>
<g mask="url(#mask0_33_845)">
<path d="M1.738 62.582H0.738V63.582H1.738V62.582ZM2.886 44.542L1.97108 44.1384L1.96606 44.1498L1.96132 44.1613L2.886 44.542ZM6.822 39.622L7.44088 40.4075L7.44388 40.4051L6.822 39.622ZM14.12 35.44L14.5199 36.3566L14.5254 36.3541L14.12 35.44ZM24.288 30.93L24.6934 31.8442L24.7033 31.8397L24.288 30.93ZM30.028 26.748L29.2495 26.1203L29.2471 26.1233L30.028 26.748ZM29.454 13.382L28.7357 14.0778L28.7468 14.0892L28.7582 14.1003L29.454 13.382ZM14.776 13.382L14.0689 12.6749L14.0632 12.6805L14.0577 12.6862L14.776 13.382ZM12.234 20.68V21.68H13.234V20.68H12.234ZM1 20.68H0V21.68H1V20.68ZM3.378 10.676L4.25902 11.1492L4.26257 11.1424L3.378 10.676ZM10.43 3.624L10.9078 4.50256L10.9195 4.49598L10.43 3.624ZM40.934 10.348L40.0606 10.8351L40.0647 10.8423L40.934 10.348ZM39.54 31.996L40.3012 32.6445L40.307 32.6376L39.54 31.996ZM28.47 39.704L28.8754 40.6182L28.8799 40.6161L28.47 39.704ZM18.302 44.214L18.6959 45.1332L18.7074 45.1281L18.302 44.214ZM14.284 46.838L15.0365 47.4965L15.0464 47.4853L15.0559 47.4737L14.284 46.838ZM13.136 55.694L12.3996 56.3707L14.136 58.2602V55.694H13.136ZM10.348 52.66V51.66H8.07099L9.61167 53.3367L10.348 52.66ZM43.558 52.66H44.558V51.66H43.558V52.66ZM43.558 62.582V63.582H44.558V62.582H43.558ZM1.738 62.582H2.738V51.102H1.738H0.738V62.582H1.738ZM1.738 51.102H2.738C2.738 48.6863 3.10585 46.6345 3.81068 44.9228L2.886 44.542L1.96132 44.1613C1.13548 46.1669 0.738 48.4884 0.738 51.102H1.738ZM2.886 44.542L3.80092 44.9457C4.54673 43.2552 5.74833 41.741 7.44088 40.4075L6.822 39.622L6.20313 38.8365C4.28768 40.3457 2.86527 42.1116 1.97108 44.1384L2.886 44.542ZM6.822 39.622L7.44388 40.4051C9.21438 38.9992 11.5648 37.6461 14.5199 36.3566L14.12 35.44L13.72 34.5235C10.6618 35.858 8.14695 37.2929 6.20012 38.8389L6.822 39.622ZM14.12 35.44L14.5254 36.3541L24.6934 31.8442L24.288 30.93L23.8825 30.0159L13.7145 34.5259L14.12 35.44ZM24.288 30.93L24.7033 31.8397C27.3171 30.6464 29.373 29.1675 30.8088 27.3727L30.028 26.748L29.2471 26.1233C28.0589 27.6086 26.2881 28.9176 23.8727 30.0203L24.288 30.93ZM30.028 26.748L30.8064 27.3758C32.3442 25.4688 33.078 23.0738 33.078 20.27H32.078H31.078C31.078 22.7142 30.445 24.6379 29.2495 26.1203L30.028 26.748ZM32.078 20.27H33.078C33.078 17.1573 32.13 14.5821 30.1498 12.6638L29.454 13.382L28.7582 14.1003C30.2766 15.5712 31.078 17.5881 31.078 20.27H32.078ZM29.454 13.382L30.1722 12.6862C28.237 10.6886 25.5118 9.758 22.156 9.758V10.758V11.758C25.1415 11.758 27.2816 12.5768 28.7357 14.0778L29.454 13.382ZM22.156 10.758V9.758C18.7983 9.758 16.0546 10.6892 14.0689 12.6749L14.776 13.382L15.4831 14.0891C16.996 12.5762 19.1723 11.758 22.156 11.758V10.758ZM14.776 13.382L14.0577 12.6862C12.1358 14.6702 11.234 17.38 11.234 20.68H12.234H13.234C13.234 17.7481 14.0268 15.5925 15.4942 14.0778L14.776 13.382ZM12.234 20.68V19.68H1V20.68V21.68H12.234V20.68ZM1 20.68H2C2 17.1094 2.76008 13.9403 4.25902 11.1492L3.378 10.676L2.497 10.2029C0.825287 13.3158 0 16.816 0 20.68H1ZM3.378 10.676L4.26257 11.1424C5.75177 8.31807 7.95717 6.10733 10.9078 4.50256L10.43 3.624L9.95223 2.74551C6.67093 4.53008 4.1749 7.0206 2.49343 10.2096L3.378 10.676ZM10.43 3.624L10.9195 4.49598C13.8461 2.85298 17.5736 2 22.156 2V1V0C17.3356 0 13.2458 0.896356 9.94046 2.75201L10.43 3.624ZM22.156 1V2C26.7428 2 30.4748 2.8273 33.4042 4.42048L33.882 3.542L34.3597 2.66352C31.0571 0.867362 26.9718 0 22.156 0V1ZM33.882 3.542L33.4042 4.42048C36.3694 6.03317 38.5757 8.17244 40.0606 10.8351L40.934 10.348L41.8073 9.86093C40.1216 6.83823 37.6265 4.44017 34.3597 2.66352L33.882 3.542ZM40.934 10.348L40.0647 10.8423C41.558 13.4686 42.312 16.4121 42.312 19.696H43.312H44.312C44.312 16.0919 43.4806 12.8035 41.8033 9.8537L40.934 10.348ZM43.312 19.696H42.312V20.762H43.312H44.312V19.696H43.312ZM43.312 20.762H42.312C42.312 25.0458 41.1157 28.5533 38.7729 31.3545L39.54 31.996L40.307 32.6376C42.9936 29.4254 44.312 25.4436 44.312 20.762H43.312ZM39.54 31.996L38.7787 31.3476C36.3892 34.1527 32.838 36.6445 28.06 38.7919L28.47 39.704L28.8799 40.6161C33.8326 38.3902 37.6614 35.7434 40.3012 32.6445L39.54 31.996ZM28.47 39.704L28.0645 38.7899L17.8965 43.2999L18.302 44.214L18.7074 45.1281L28.8754 40.6182L28.47 39.704ZM18.302 44.214L17.908 43.2949C15.9405 44.1381 14.4279 45.0902 13.512 46.2023L14.284 46.838L15.0559 47.4737C15.6707 46.7272 16.8367 45.93 18.6959 45.1332L18.302 44.214ZM14.284 46.838L13.5314 46.1795C12.5617 47.2878 12.136 48.7513 12.136 50.446H13.136H14.136C14.136 49.0795 14.4756 48.1376 15.0365 47.4965L14.284 46.838ZM13.136 50.446H12.136V55.694H13.136H14.136V50.446H13.136ZM13.136 55.694L13.8723 55.0174L11.0843 51.9834L10.348 52.66L9.61167 53.3367L12.3996 56.3707L13.136 55.694ZM10.348 52.66V53.66H43.558V52.66V51.66H10.348V52.66ZM43.558 52.66H42.558V62.582H43.558H44.558V52.66H43.558ZM43.558 62.582V61.582H1.738V62.582V63.582H43.558V62.582ZM66.9241 61.844L66.4889 62.7445L66.5012 62.7502L66.9241 61.844ZM58.8881 55.448L58.0919 56.0531L58.0979 56.0609L58.8881 55.448ZM54.2961 46.1L53.3287 46.3531L53.331 46.3619L53.3335 46.3708L54.2961 46.1ZM64.2181 4.936L64.7756 5.76626L64.7836 5.76073L64.2181 4.936ZM93.4921 4.936L92.9266 5.76077L92.9347 5.76622L93.4921 4.936ZM101.938 15.432L101.012 15.8093L101.016 15.8191L101.938 15.432ZM103.25 46.1L102.286 45.8331L102.284 45.8433L103.25 46.1ZM98.7401 55.448L97.944 54.8429L97.9421 54.8454L98.7401 55.448ZM90.7861 61.844L91.209 62.7503L91.2213 62.7444L90.7861 61.844ZM89.6381 48.478L90.4618 49.0451L90.466 49.0389L89.6381 48.478ZM89.5561 16.58L88.7433 17.1626L88.748 17.169L89.5561 16.58ZM68.0721 16.58L67.2657 15.9887L67.264 15.991L68.0721 16.58ZM78.8961 64.14V63.14C74.299 63.14 70.4612 62.3912 67.347 60.9378L66.9241 61.844L66.5012 62.7502C69.947 64.3582 74.0906 65.14 78.8961 65.14V64.14ZM66.9241 61.844L67.3593 60.9437C64.2076 59.4204 61.6541 57.3829 59.6783 54.8352L58.8881 55.448L58.0979 56.0609C60.2768 58.8705 63.0806 61.0971 66.4889 62.7445L66.9241 61.844ZM58.8881 55.448L59.6843 54.8429C57.6873 52.2154 56.2108 49.2142 55.2588 45.8293L54.2961 46.1L53.3335 46.3708C54.3495 49.9832 55.9341 53.214 58.0919 56.0531L58.8881 55.448ZM54.2961 46.1L55.2636 45.847C54.357 42.3808 53.9021 38.7488 53.9021 34.948H52.9021H51.9021C51.9021 38.9099 52.3765 42.7126 53.3287 46.3531L54.2961 46.1ZM52.9021 34.948H53.9021V30.356H52.9021H51.9021V34.948H52.9021ZM52.9021 30.356H53.9021C53.9021 24.9479 54.8121 20.1075 56.6122 15.8191L55.6901 15.432L54.7681 15.045C52.8508 19.6125 51.9021 24.7215 51.9021 30.356H52.9021ZM55.6901 15.432L56.6122 15.8191C58.3986 11.5633 61.1182 8.22195 64.7756 5.76626L64.2181 4.936L63.6607 4.10578C59.6648 6.78876 56.699 10.4448 54.7681 15.045L55.6901 15.432ZM64.2181 4.936L64.7836 5.76073C68.4022 3.27942 73.0822 2 78.8961 2V1V0C72.7927 0 67.6874 1.34457 63.6526 4.11127L64.2181 4.936ZM78.8961 1V2C84.6532 2 89.3066 3.27849 92.9266 5.76077L93.4921 4.936L94.0576 4.11127C90.0243 1.34555 84.9471 0 78.8961 0V1ZM93.4921 4.936L92.9347 5.76622C96.5897 8.22031 99.2801 11.5583 101.012 15.8093L101.938 15.432L102.864 15.0547C100.988 10.4497 98.0479 6.79035 94.0496 4.10578L93.4921 4.936ZM101.938 15.432L101.016 15.8191C102.816 20.1075 103.726 24.9479 103.726 30.356H104.726H105.726C105.726 24.7215 104.777 19.6125 102.86 15.045L101.938 15.432ZM104.726 30.356H103.726V34.948H104.726H105.726V30.356H104.726ZM104.726 34.948H103.726C103.726 38.7439 103.245 42.3711 102.286 45.8331L103.25 46.1L104.214 46.3669C105.223 42.7222 105.726 38.9148 105.726 34.948H104.726ZM103.25 46.1L102.284 45.8433C101.386 49.2228 99.9381 52.2191 97.944 54.8429L98.7401 55.448L99.5363 56.0531C101.697 53.2103 103.256 49.9746 104.217 46.3568L103.25 46.1ZM98.7401 55.448L97.9421 54.8454C96.023 57.3869 93.5005 59.4214 90.351 60.9437L90.7861 61.844L91.2213 62.7444C94.6317 61.096 97.4119 58.8665 99.5382 56.0506L98.7401 55.448ZM90.7861 61.844L90.3632 60.9378C87.2476 62.3918 83.4366 63.14 78.8961 63.14V64.14V65.14C83.6489 65.14 87.7646 64.3577 91.209 62.7503L90.7861 61.844ZM78.8961 53.48V54.48C84.0147 54.48 87.94 52.7078 90.4618 49.0451L89.6381 48.478L88.8145 47.9109C86.7443 50.9176 83.5082 52.48 78.8961 52.48V53.48ZM89.6381 48.478L90.466 49.0389C92.9299 45.4018 94.0821 39.9105 94.0821 32.734H93.0821H92.0821C92.0821 39.7709 90.9384 44.7756 88.8102 47.9172L89.6381 48.478ZM93.0821 32.734H94.0821C94.0821 25.1398 92.9094 19.4832 90.3643 15.991L89.5561 16.58L88.748 17.169C90.9042 20.1275 92.0821 25.2402 92.0821 32.734H93.0821ZM89.5561 16.58L90.3689 15.9975C87.7952 12.4063 83.9089 10.66 78.8961 10.66V11.66V12.66C83.3954 12.66 86.6157 14.1938 88.7433 17.1626L89.5561 16.58ZM78.8961 11.66V10.66C73.8329 10.66 69.8953 12.4028 67.2657 15.9887L68.0721 16.58L68.8785 17.1714C71.0596 14.1972 74.338 12.66 78.8961 12.66V11.66ZM68.0721 16.58L67.264 15.991C64.7201 19.4815 63.5461 25.0813 63.5461 32.57H64.5461H65.5461C65.5461 25.1894 66.7228 20.1292 68.8803 17.169L68.0721 16.58ZM64.5461 32.57H63.5461C63.5461 39.8021 64.7258 45.3259 67.2504 48.9659L68.0721 48.396L68.8938 47.8261C66.7171 44.6875 65.5461 39.6606 65.5461 32.57H64.5461ZM68.0721 48.396L67.2504 48.9659C69.8233 52.6757 73.7704 54.48 78.8961 54.48V53.48V52.48C74.2911 52.48 71.0222 50.895 68.8938 47.8261L68.0721 48.396ZM124.969 62.582H123.969V63.582H124.969V62.582ZM124.969 9.938L125.58 9.14671L123.969 7.90151V9.938H124.969ZM128.577 12.726V13.726H131.506L129.188 11.9347L128.577 12.726ZM112.751 12.726H111.751V13.726H112.751V12.726ZM112.751 2.722V1.722H111.751V2.722H112.751ZM136.531 2.722H137.531V1.722H136.531V2.722ZM136.531 62.582V63.582H137.531V62.582H136.531ZM124.969 62.582H125.969V9.938H124.969H123.969V62.582H124.969ZM124.969 9.938L124.357 10.7293L127.965 13.5173L128.577 12.726L129.188 11.9347L125.58 9.14671L124.969 9.938ZM128.577 12.726V11.726H112.751V12.726V13.726H128.577V12.726ZM112.751 12.726H113.751V2.722H112.751H111.751V12.726H112.751ZM112.751 2.722V3.722H136.531V2.722V1.722H112.751V2.722ZM136.531 2.722H135.531V62.582H136.531H137.531V2.722H136.531ZM136.531 62.582V61.582H124.969V62.582V63.582H136.531V62.582ZM158.983 61.352L158.496 62.2255L158.502 62.2288L158.983 61.352ZM151.275 53.972L150.403 54.4616L150.408 54.4707L150.413 54.4797L151.275 53.972ZM148.651 43.804V42.804H147.651V43.804H148.651ZM159.885 43.804H160.885V42.804H159.885V43.804ZM161.279 49.298L160.416 49.8038L160.422 49.8147L160.429 49.8254L161.279 49.298ZM165.297 53.07L164.816 53.9468L164.827 53.9529L164.838 53.9587L165.297 53.07ZM181.123 48.888L180.246 48.4072L180.24 48.4182L180.234 48.4294L181.123 48.888ZM181.123 37.326L180.228 37.7732L180.237 37.7902L180.246 37.8069L181.123 37.326ZM177.269 33.226L176.734 34.0708L176.75 34.0812L176.766 34.0908L177.269 33.226ZM161.607 35.85V36.85H162.094L162.394 36.4663L161.607 35.85ZM150.865 35.85L149.869 35.7588L149.769 36.85H150.865V35.85ZM153.899 2.722V1.722H152.986L152.903 2.6308L153.899 2.722ZM188.585 2.722H189.585V1.722H188.585V2.722ZM188.585 12.644V13.644H189.585V12.644H188.585ZM158.983 12.644L158.368 11.8555L156.075 13.644H158.983V12.644ZM163.083 9.446L164.078 9.54081L164.298 7.2296L162.468 8.6575L163.083 9.446ZM161.115 30.11L160.832 31.0694L161.995 31.4114L162.11 30.2048L161.115 30.11ZM158.327 29.29L157.575 28.6299L156.541 29.8072L158.044 30.2494L158.327 29.29ZM191.291 32.898L190.413 33.3769L190.416 33.3837L191.291 32.898ZM183.419 61.27L183.916 62.1374L183.921 62.1348L183.419 61.27ZM171.119 64.14V63.14C166.549 63.14 162.677 62.2373 159.463 60.4752L158.983 61.352L158.502 62.2288C162.067 64.1841 166.285 65.14 171.119 65.14V64.14ZM158.983 61.352L159.469 60.4786C156.278 58.6997 153.843 56.3613 152.136 53.4643L151.275 53.972L150.413 54.4797C152.314 57.7055 155.018 60.287 158.496 62.2255L158.983 61.352ZM151.275 53.972L152.147 53.4825C150.483 50.5199 149.651 47.2997 149.651 43.804H148.651H147.651C147.651 47.6337 148.567 51.1922 150.403 54.4616L151.275 53.972ZM148.651 43.804V44.804H159.885V43.804V42.804H148.651V43.804ZM159.885 43.804H158.885C158.885 46.0355 159.385 48.0458 160.416 49.8038L161.279 49.298L162.141 48.7923C161.313 47.3796 160.885 45.7272 160.885 43.804H159.885ZM161.279 49.298L160.429 49.8254C161.507 51.5624 162.976 52.9378 164.816 53.9468L165.297 53.07L165.777 52.1932C164.228 51.3436 163.018 50.2043 162.128 48.7707L161.279 49.298ZM165.297 53.07L164.838 53.9587C166.697 54.9183 168.828 55.382 171.201 55.382V54.382V53.382C169.091 53.382 167.285 52.9711 165.755 52.1814L165.297 53.07ZM171.201 54.382V55.382C173.692 55.382 175.896 54.8595 177.771 53.7708L177.269 52.906L176.766 52.0412C175.252 52.9205 173.41 53.382 171.201 53.382V54.382ZM177.269 52.906L177.771 53.7708C179.625 52.6938 181.047 51.2157 182.011 49.3467L181.123 48.888L180.234 48.4294C179.449 49.9497 178.301 51.1502 176.766 52.0412L177.269 52.906ZM181.123 48.888L181.999 49.3689C183.02 47.5084 183.517 45.3984 183.517 43.066H182.517H181.517C181.517 45.107 181.084 46.8784 180.246 48.4072L181.123 48.888ZM182.517 43.066H183.517C183.517 40.7837 183.018 38.702 181.999 36.8452L181.123 37.326L180.246 37.8069C181.086 39.3394 181.517 41.0844 181.517 43.066H182.517ZM181.123 37.326L182.017 36.8788C181.055 34.9546 179.634 33.443 177.771 32.3612L177.269 33.226L176.766 34.0908C178.293 34.9771 179.441 36.1987 180.228 37.7732L181.123 37.326ZM177.269 33.226L177.804 32.3812C175.973 31.2216 173.782 30.668 171.283 30.668V31.668V32.668C173.484 32.668 175.284 33.1531 176.734 34.0708L177.269 33.226ZM171.283 31.668V30.668C169.181 30.668 167.185 31.0775 165.306 31.8999L165.707 32.816L166.107 33.7322C167.726 33.0239 169.448 32.668 171.283 32.668V31.668ZM165.707 32.816L165.306 31.8999C163.434 32.7186 161.923 33.8227 160.819 35.2337L161.607 35.85L162.394 36.4663C163.258 35.3627 164.48 34.4441 166.107 33.7322L165.707 32.816ZM161.607 35.85V34.85H150.865V35.85V36.85H161.607V35.85ZM150.865 35.85L151.86 35.9412L154.894 2.8132L153.899 2.722L152.903 2.6308L149.869 35.7588L150.865 35.85ZM153.899 2.722V3.722H188.585V2.722V1.722H153.899V2.722ZM188.585 2.722H187.585V12.644H188.585H189.585V2.722H188.585ZM188.585 12.644V11.644H158.983V12.644V13.644H188.585V12.644ZM158.983 12.644L159.598 13.4325L163.698 10.2345L163.083 9.446L162.468 8.6575L158.368 11.8555L158.983 12.644ZM163.083 9.446L162.087 9.35119L160.119 30.0152L161.115 30.11L162.11 30.2048L164.078 9.54081L163.083 9.446ZM161.115 30.11L161.397 29.1507L158.609 28.3307L158.327 29.29L158.044 30.2494L160.832 31.0694L161.115 30.11ZM158.327 29.29L159.078 29.9501C160.576 28.2454 162.417 26.8161 164.613 25.6659L164.149 24.78L163.685 23.8942C161.288 25.1493 159.248 26.7266 157.575 28.6299L158.327 29.29ZM164.149 24.78L164.613 25.6659C166.724 24.5598 169.45 23.976 172.841 23.976V22.976V21.976C169.234 21.976 166.165 22.595 163.685 23.8942L164.149 24.78ZM172.841 22.976V23.976C177.133 23.976 180.723 24.8498 183.656 26.5475L184.157 25.682L184.658 24.8166C181.358 22.9063 177.404 21.976 172.841 21.976V22.976ZM184.157 25.682L183.656 26.5475C186.621 28.2645 188.865 30.5396 190.413 33.3769L191.291 32.898L192.168 32.4192C190.436 29.2431 187.924 26.7075 184.658 24.8166L184.157 25.682ZM191.291 32.898L190.416 33.3837C191.971 36.1816 192.751 39.2389 192.751 42.574H193.751H194.751C194.751 38.9118 193.89 35.5184 192.165 32.4124L191.291 32.898ZM193.751 42.574H192.751V43.64H193.751H194.751V42.574H193.751ZM193.751 43.64H192.751C192.751 47.0209 191.92 50.1871 190.255 53.1545L191.127 53.644L191.999 54.1336C193.831 50.8689 194.751 47.3658 194.751 43.64H193.751ZM191.127 53.644L190.255 53.1545C188.601 56.0998 186.167 58.5181 182.916 60.4052L183.419 61.27L183.921 62.1348C187.449 60.086 190.153 57.4203 191.999 54.1336L191.127 53.644ZM183.419 61.27L182.921 60.4027C179.773 62.2089 175.855 63.14 171.119 63.14V64.14V65.14C176.113 65.14 180.395 64.1578 183.916 62.1374L183.419 61.27Z" fill="#0A0A0A"/>
</g>
</g>
<defs>
<linearGradient id="paint0_linear_33_845" x1="3.48547" y1="-8.418" x2="57.4164" y2="78.2665" gradientUnits="userSpaceOnUse">
<stop stop-color="#3949E0"/>
<stop offset="1" stop-color="#AD73FF"/>
</linearGradient>
<clipPath id="clip0_33_845">
<rect width="195" height="66" fill="white"/>
</clipPath>
</defs>
</svg>
