<svg width="210" height="66" viewBox="0 0 210 66" fill="none" xmlns="http://www.w3.org/2000/svg">
<g clip-path="url(#clip0_33_861)">
<path d="M1.738 62.582V51.102C1.738 48.5874 2.12067 46.4007 2.886 44.542C3.706 42.6834 5.018 41.0434 6.822 39.622C8.68067 38.146 11.1133 36.752 14.12 35.44L24.288 30.93C26.8026 29.782 28.716 28.388 30.028 26.748C31.3946 25.0534 32.078 22.894 32.078 20.27C32.078 17.3727 31.2033 15.0767 29.454 13.382C27.7593 11.6327 25.3266 10.758 22.156 10.758C18.9853 10.758 16.5253 11.6327 14.776 13.382C13.0813 15.1314 12.234 17.564 12.234 20.68H1C1 16.9627 1.79267 13.628 3.378 10.676C4.96333 7.66933 7.314 5.31867 10.43 3.624C13.546 1.87466 17.4546 1 22.156 1C26.8573 1 30.766 1.84733 33.882 3.542C36.998 5.23667 39.3486 7.50533 40.934 10.348C42.5193 13.136 43.312 16.252 43.312 19.696V20.762C43.312 25.2447 42.0546 28.9894 39.54 31.996C37.0253 34.948 33.3353 37.5174 28.47 39.704L18.302 44.214C16.3886 45.034 15.0493 45.9087 14.284 46.838C13.5186 47.7127 13.136 48.9154 13.136 50.446V55.694L10.348 52.66H43.558V62.582H1.738ZM78.8961 64.14C74.1948 64.14 70.2041 63.3747 66.9241 61.844C63.6441 60.2587 60.9654 58.1267 58.8881 55.448C56.8108 52.7147 55.2801 49.5987 54.2961 46.1C53.3668 42.5467 52.9021 38.8294 52.9021 34.948V30.356C52.9021 24.8347 53.8314 19.86 55.6901 15.432C57.5488 11.004 60.3914 7.50533 64.2181 4.936C68.0448 2.312 72.9374 1 78.8961 1C84.8001 1 89.6655 2.312 93.4921 4.936C97.3188 7.50533 100.134 11.004 101.938 15.432C103.797 19.86 104.726 24.8347 104.726 30.356V34.948C104.726 38.8294 104.234 42.5467 103.25 46.1C102.321 49.5987 100.817 52.7147 98.7401 55.448C96.7175 58.1267 94.0661 60.2587 90.7861 61.844C87.5061 63.3747 83.5428 64.14 78.8961 64.14ZM78.8961 53.48C83.7615 53.48 87.3421 51.8127 89.6381 48.478C91.9341 45.0887 93.0821 39.8407 93.0821 32.734C93.0821 25.19 91.9068 19.8054 89.5561 16.58C87.2054 13.3 83.6521 11.66 78.8961 11.66C74.0854 11.66 70.4774 13.3 68.0721 16.58C65.7214 19.8054 64.5461 25.1354 64.5461 32.57C64.5461 39.7314 65.7214 45.0067 68.0721 48.396C70.4228 51.7854 74.0308 53.48 78.8961 53.48ZM115.129 62.582V51.102C115.129 48.5874 115.511 46.4007 116.277 44.542C117.097 42.6834 118.409 41.0434 120.213 39.622C122.071 38.146 124.504 36.752 127.511 35.44L137.679 30.93C140.193 29.782 142.107 28.388 143.419 26.748C144.785 25.0534 145.469 22.894 145.469 20.27C145.469 17.3727 144.594 15.0767 142.845 13.382C141.15 11.6327 138.717 10.758 135.547 10.758C132.376 10.758 129.916 11.6327 128.167 13.382C126.472 15.1314 125.625 17.564 125.625 20.68H114.391C114.391 16.9627 115.183 13.628 116.769 10.676C118.354 7.66933 120.705 5.31867 123.821 3.624C126.937 1.87466 130.845 1 135.547 1C140.248 1 144.157 1.84733 147.273 3.542C150.389 5.23667 152.739 7.50533 154.325 10.348C155.91 13.136 156.703 16.252 156.703 19.696V20.762C156.703 25.2447 155.445 28.9894 152.931 31.996C150.416 34.948 146.726 37.5174 141.861 39.704L131.693 44.214C129.779 45.034 128.44 45.9087 127.675 46.838C126.909 47.7127 126.527 48.9154 126.527 50.446V55.694L123.739 52.66H156.949V62.582H115.129ZM166.539 62.582V51.102C166.539 48.5874 166.921 46.4007 167.687 44.542C168.507 42.6834 169.819 41.0434 171.623 39.622C173.481 38.146 175.914 36.752 178.921 35.44L189.089 30.93C191.603 29.782 193.517 28.388 194.829 26.748C196.195 25.0534 196.879 22.894 196.879 20.27C196.879 17.3727 196.004 15.0767 194.255 13.382C192.56 11.6327 190.127 10.758 186.957 10.758C183.786 10.758 181.326 11.6327 179.577 13.382C177.882 15.1314 177.035 17.564 177.035 20.68H165.801C165.801 16.9627 166.593 13.628 168.179 10.676C169.764 7.66933 172.115 5.31867 175.231 3.624C178.347 1.87466 182.255 1 186.957 1C191.658 1 195.567 1.84733 198.683 3.542C201.799 5.23667 204.149 7.50533 205.735 10.348C207.32 13.136 208.113 16.252 208.113 19.696V20.762C208.113 25.2447 206.855 28.9894 204.341 31.996C201.826 34.948 198.136 37.5174 193.271 39.704L183.103 44.214C181.189 45.034 179.85 45.9087 179.085 46.838C178.319 47.7127 177.937 48.9154 177.937 50.446V55.694L175.149 52.66H208.359V62.582H166.539Z" fill="url(#paint0_linear_33_861)" fill-opacity="0.1"/>
<mask id="mask0_33_861" style="mask-type:luminance" maskUnits="userSpaceOnUse" x="-1" y="-1" width="211" height="67">
<path d="M209.408 -0.417969H-0.592041V65.582H209.408V-0.417969Z" fill="white"/>
<path d="M1.738 62.582V51.102C1.738 48.5874 2.12067 46.4007 2.886 44.542C3.706 42.6834 5.018 41.0434 6.822 39.622C8.68067 38.146 11.1133 36.752 14.12 35.44L24.288 30.93C26.8026 29.782 28.716 28.388 30.028 26.748C31.3946 25.0534 32.078 22.894 32.078 20.27C32.078 17.3727 31.2033 15.0767 29.454 13.382C27.7593 11.6327 25.3266 10.758 22.156 10.758C18.9853 10.758 16.5253 11.6327 14.776 13.382C13.0813 15.1314 12.234 17.564 12.234 20.68H1C1 16.9627 1.79267 13.628 3.378 10.676C4.96333 7.66933 7.314 5.31867 10.43 3.624C13.546 1.87466 17.4546 1 22.156 1C26.8573 1 30.766 1.84733 33.882 3.542C36.998 5.23667 39.3486 7.50533 40.934 10.348C42.5193 13.136 43.312 16.252 43.312 19.696V20.762C43.312 25.2447 42.0546 28.9894 39.54 31.996C37.0253 34.948 33.3353 37.5174 28.47 39.704L18.302 44.214C16.3886 45.034 15.0493 45.9087 14.284 46.838C13.5186 47.7127 13.136 48.9154 13.136 50.446V55.694L10.348 52.66H43.558V62.582H1.738ZM78.8961 64.14C74.1948 64.14 70.2041 63.3747 66.9241 61.844C63.6441 60.2587 60.9654 58.1267 58.8881 55.448C56.8108 52.7147 55.2801 49.5987 54.2961 46.1C53.3668 42.5467 52.9021 38.8294 52.9021 34.948V30.356C52.9021 24.8347 53.8314 19.86 55.6901 15.432C57.5488 11.004 60.3914 7.50533 64.2181 4.936C68.0448 2.312 72.9374 1 78.8961 1C84.8001 1 89.6655 2.312 93.4921 4.936C97.3188 7.50533 100.134 11.004 101.938 15.432C103.797 19.86 104.726 24.8347 104.726 30.356V34.948C104.726 38.8294 104.234 42.5467 103.25 46.1C102.321 49.5987 100.817 52.7147 98.7401 55.448C96.7175 58.1267 94.0661 60.2587 90.7861 61.844C87.5061 63.3747 83.5428 64.14 78.8961 64.14ZM78.8961 53.48C83.7615 53.48 87.3421 51.8127 89.6381 48.478C91.9341 45.0887 93.0821 39.8407 93.0821 32.734C93.0821 25.19 91.9068 19.8054 89.5561 16.58C87.2054 13.3 83.6521 11.66 78.8961 11.66C74.0854 11.66 70.4774 13.3 68.0721 16.58C65.7214 19.8054 64.5461 25.1354 64.5461 32.57C64.5461 39.7314 65.7214 45.0067 68.0721 48.396C70.4228 51.7854 74.0308 53.48 78.8961 53.48ZM115.129 62.582V51.102C115.129 48.5874 115.511 46.4007 116.277 44.542C117.097 42.6834 118.409 41.0434 120.213 39.622C122.071 38.146 124.504 36.752 127.511 35.44L137.679 30.93C140.193 29.782 142.107 28.388 143.419 26.748C144.785 25.0534 145.469 22.894 145.469 20.27C145.469 17.3727 144.594 15.0767 142.845 13.382C141.15 11.6327 138.717 10.758 135.547 10.758C132.376 10.758 129.916 11.6327 128.167 13.382C126.472 15.1314 125.625 17.564 125.625 20.68H114.391C114.391 16.9627 115.183 13.628 116.769 10.676C118.354 7.66933 120.705 5.31867 123.821 3.624C126.937 1.87466 130.845 1 135.547 1C140.248 1 144.157 1.84733 147.273 3.542C150.389 5.23667 152.739 7.50533 154.325 10.348C155.91 13.136 156.703 16.252 156.703 19.696V20.762C156.703 25.2447 155.445 28.9894 152.931 31.996C150.416 34.948 146.726 37.5174 141.861 39.704L131.693 44.214C129.779 45.034 128.44 45.9087 127.675 46.838C126.909 47.7127 126.527 48.9154 126.527 50.446V55.694L123.739 52.66H156.949V62.582H115.129ZM166.539 62.582V51.102C166.539 48.5874 166.921 46.4007 167.687 44.542C168.507 42.6834 169.819 41.0434 171.623 39.622C173.481 38.146 175.914 36.752 178.921 35.44L189.089 30.93C191.603 29.782 193.517 28.388 194.829 26.748C196.195 25.0534 196.879 22.894 196.879 20.27C196.879 17.3727 196.004 15.0767 194.255 13.382C192.56 11.6327 190.127 10.758 186.957 10.758C183.786 10.758 181.326 11.6327 179.577 13.382C177.882 15.1314 177.035 17.564 177.035 20.68H165.801C165.801 16.9627 166.593 13.628 168.179 10.676C169.764 7.66933 172.115 5.31867 175.231 3.624C178.347 1.87466 182.255 1 186.957 1C191.658 1 195.567 1.84733 198.683 3.542C201.799 5.23667 204.149 7.50533 205.735 10.348C207.32 13.136 208.113 16.252 208.113 19.696V20.762C208.113 25.2447 206.855 28.9894 204.341 31.996C201.826 34.948 198.136 37.5174 193.271 39.704L183.103 44.214C181.189 45.034 179.85 45.9087 179.085 46.838C178.319 47.7127 177.937 48.9154 177.937 50.446V55.694L175.149 52.66H208.359V62.582H166.539Z" fill="black"/>
</mask>
<g mask="url(#mask0_33_861)">
<path d="M1.738 62.582H0.738V63.582H1.738V62.582ZM2.886 44.542L1.97108 44.1384L1.96606 44.1498L1.96132 44.1613L2.886 44.542ZM6.822 39.622L7.44088 40.4075L7.44388 40.4051L6.822 39.622ZM14.12 35.44L14.5199 36.3566L14.5254 36.3541L14.12 35.44ZM24.288 30.93L24.6934 31.8442L24.7033 31.8397L24.288 30.93ZM30.028 26.748L29.2495 26.1203L29.2471 26.1233L30.028 26.748ZM29.454 13.382L28.7357 14.0778L28.7468 14.0892L28.7582 14.1003L29.454 13.382ZM14.776 13.382L14.0689 12.6749L14.0632 12.6805L14.0577 12.6862L14.776 13.382ZM12.234 20.68V21.68H13.234V20.68H12.234ZM1 20.68H0V21.68H1V20.68ZM3.378 10.676L4.25902 11.1492L4.26257 11.1424L3.378 10.676ZM10.43 3.624L10.9078 4.50256L10.9195 4.49598L10.43 3.624ZM40.934 10.348L40.0606 10.8351L40.0647 10.8423L40.934 10.348ZM39.54 31.996L40.3012 32.6445L40.307 32.6376L39.54 31.996ZM28.47 39.704L28.8754 40.6182L28.8799 40.6161L28.47 39.704ZM18.302 44.214L18.6959 45.1332L18.7074 45.1281L18.302 44.214ZM14.284 46.838L15.0365 47.4965L15.0464 47.4853L15.0559 47.4737L14.284 46.838ZM13.136 55.694L12.3996 56.3707L14.136 58.2602V55.694H13.136ZM10.348 52.66V51.66H8.07099L9.61167 53.3367L10.348 52.66ZM43.558 52.66H44.558V51.66H43.558V52.66ZM43.558 62.582V63.582H44.558V62.582H43.558ZM1.738 62.582H2.738V51.102H1.738H0.738V62.582H1.738ZM1.738 51.102H2.738C2.738 48.6863 3.10585 46.6345 3.81068 44.9228L2.886 44.542L1.96132 44.1613C1.13548 46.1669 0.738 48.4884 0.738 51.102H1.738ZM2.886 44.542L3.80092 44.9457C4.54673 43.2552 5.74833 41.741 7.44088 40.4075L6.822 39.622L6.20313 38.8365C4.28768 40.3457 2.86527 42.1116 1.97108 44.1384L2.886 44.542ZM6.822 39.622L7.44388 40.4051C9.21438 38.9992 11.5648 37.6461 14.5199 36.3566L14.12 35.44L13.72 34.5235C10.6618 35.858 8.14695 37.2929 6.20012 38.8389L6.822 39.622ZM14.12 35.44L14.5254 36.3541L24.6934 31.8442L24.288 30.93L23.8825 30.0159L13.7145 34.5259L14.12 35.44ZM24.288 30.93L24.7033 31.8397C27.3171 30.6464 29.373 29.1675 30.8088 27.3727L30.028 26.748L29.2471 26.1233C28.0589 27.6086 26.2881 28.9176 23.8727 30.0203L24.288 30.93ZM30.028 26.748L30.8064 27.3758C32.3442 25.4688 33.078 23.0738 33.078 20.27H32.078H31.078C31.078 22.7142 30.445 24.6379 29.2495 26.1203L30.028 26.748ZM32.078 20.27H33.078C33.078 17.1573 32.13 14.5821 30.1498 12.6638L29.454 13.382L28.7582 14.1003C30.2766 15.5712 31.078 17.5881 31.078 20.27H32.078ZM29.454 13.382L30.1722 12.6862C28.237 10.6886 25.5118 9.758 22.156 9.758V10.758V11.758C25.1415 11.758 27.2816 12.5768 28.7357 14.0778L29.454 13.382ZM22.156 10.758V9.758C18.7983 9.758 16.0546 10.6892 14.0689 12.6749L14.776 13.382L15.4831 14.0891C16.996 12.5762 19.1723 11.758 22.156 11.758V10.758ZM14.776 13.382L14.0577 12.6862C12.1358 14.6702 11.234 17.38 11.234 20.68H12.234H13.234C13.234 17.7481 14.0268 15.5925 15.4942 14.0778L14.776 13.382ZM12.234 20.68V19.68H1V20.68V21.68H12.234V20.68ZM1 20.68H2C2 17.1094 2.76008 13.9403 4.25902 11.1492L3.378 10.676L2.497 10.2029C0.825287 13.3158 0 16.816 0 20.68H1ZM3.378 10.676L4.26257 11.1424C5.75177 8.31807 7.95717 6.10733 10.9078 4.50256L10.43 3.624L9.95223 2.74551C6.67093 4.53008 4.1749 7.0206 2.49343 10.2096L3.378 10.676ZM10.43 3.624L10.9195 4.49598C13.8461 2.85298 17.5736 2 22.156 2V1V0C17.3356 0 13.2458 0.896356 9.94046 2.75201L10.43 3.624ZM22.156 1V2C26.7428 2 30.4748 2.8273 33.4042 4.42048L33.882 3.542L34.3597 2.66352C31.0571 0.867362 26.9718 0 22.156 0V1ZM33.882 3.542L33.4042 4.42048C36.3694 6.03317 38.5757 8.17244 40.0606 10.8351L40.934 10.348L41.8073 9.86093C40.1216 6.83823 37.6265 4.44017 34.3597 2.66352L33.882 3.542ZM40.934 10.348L40.0647 10.8423C41.558 13.4686 42.312 16.4121 42.312 19.696H43.312H44.312C44.312 16.0919 43.4806 12.8035 41.8033 9.8537L40.934 10.348ZM43.312 19.696H42.312V20.762H43.312H44.312V19.696H43.312ZM43.312 20.762H42.312C42.312 25.0458 41.1157 28.5533 38.7729 31.3545L39.54 31.996L40.307 32.6376C42.9936 29.4254 44.312 25.4436 44.312 20.762H43.312ZM39.54 31.996L38.7787 31.3476C36.3892 34.1527 32.838 36.6445 28.06 38.7919L28.47 39.704L28.8799 40.6161C33.8326 38.3902 37.6614 35.7434 40.3012 32.6445L39.54 31.996ZM28.47 39.704L28.0645 38.7899L17.8965 43.2999L18.302 44.214L18.7074 45.1281L28.8754 40.6182L28.47 39.704ZM18.302 44.214L17.908 43.2949C15.9405 44.1381 14.4279 45.0902 13.512 46.2023L14.284 46.838L15.0559 47.4737C15.6707 46.7272 16.8367 45.93 18.6959 45.1332L18.302 44.214ZM14.284 46.838L13.5314 46.1795C12.5617 47.2878 12.136 48.7513 12.136 50.446H13.136H14.136C14.136 49.0795 14.4756 48.1376 15.0365 47.4965L14.284 46.838ZM13.136 50.446H12.136V55.694H13.136H14.136V50.446H13.136ZM13.136 55.694L13.8723 55.0174L11.0843 51.9834L10.348 52.66L9.61167 53.3367L12.3996 56.3707L13.136 55.694ZM10.348 52.66V53.66H43.558V52.66V51.66H10.348V52.66ZM43.558 52.66H42.558V62.582H43.558H44.558V52.66H43.558ZM43.558 62.582V61.582H1.738V62.582V63.582H43.558V62.582ZM66.9241 61.844L66.4889 62.7445L66.5012 62.7502L66.9241 61.844ZM58.8881 55.448L58.0919 56.0531L58.0979 56.0609L58.8881 55.448ZM54.2961 46.1L53.3287 46.3531L53.331 46.3619L53.3335 46.3708L54.2961 46.1ZM64.2181 4.936L64.7756 5.76626L64.7836 5.76073L64.2181 4.936ZM93.4921 4.936L92.9266 5.76077L92.9347 5.76622L93.4921 4.936ZM101.938 15.432L101.012 15.8093L101.016 15.8191L101.938 15.432ZM103.25 46.1L102.286 45.8331L102.284 45.8433L103.25 46.1ZM98.7401 55.448L97.944 54.8429L97.9421 54.8454L98.7401 55.448ZM90.7861 61.844L91.209 62.7503L91.2213 62.7444L90.7861 61.844ZM89.6381 48.478L90.4618 49.0451L90.466 49.0389L89.6381 48.478ZM89.5561 16.58L88.7433 17.1626L88.748 17.169L89.5561 16.58ZM68.0721 16.58L67.2657 15.9887L67.264 15.991L68.0721 16.58ZM78.8961 64.14V63.14C74.299 63.14 70.4612 62.3912 67.347 60.9378L66.9241 61.844L66.5012 62.7502C69.947 64.3582 74.0906 65.14 78.8961 65.14V64.14ZM66.9241 61.844L67.3593 60.9437C64.2076 59.4204 61.6541 57.3829 59.6783 54.8352L58.8881 55.448L58.0979 56.0609C60.2768 58.8705 63.0806 61.0971 66.4889 62.7445L66.9241 61.844ZM58.8881 55.448L59.6843 54.8429C57.6873 52.2154 56.2108 49.2142 55.2588 45.8293L54.2961 46.1L53.3335 46.3708C54.3495 49.9832 55.9341 53.214 58.0919 56.0531L58.8881 55.448ZM54.2961 46.1L55.2636 45.847C54.357 42.3808 53.9021 38.7488 53.9021 34.948H52.9021H51.9021C51.9021 38.9099 52.3765 42.7126 53.3287 46.3531L54.2961 46.1ZM52.9021 34.948H53.9021V30.356H52.9021H51.9021V34.948H52.9021ZM52.9021 30.356H53.9021C53.9021 24.9479 54.8121 20.1075 56.6122 15.8191L55.6901 15.432L54.7681 15.045C52.8508 19.6125 51.9021 24.7215 51.9021 30.356H52.9021ZM55.6901 15.432L56.6122 15.8191C58.3986 11.5633 61.1182 8.22195 64.7756 5.76626L64.2181 4.936L63.6607 4.10578C59.6648 6.78876 56.699 10.4448 54.7681 15.045L55.6901 15.432ZM64.2181 4.936L64.7836 5.76073C68.4022 3.27942 73.0822 2 78.8961 2V1V0C72.7927 0 67.6874 1.34457 63.6526 4.11127L64.2181 4.936ZM78.8961 1V2C84.6532 2 89.3066 3.27849 92.9266 5.76077L93.4921 4.936L94.0576 4.11127C90.0243 1.34555 84.9471 0 78.8961 0V1ZM93.4921 4.936L92.9347 5.76622C96.5897 8.22031 99.2801 11.5583 101.012 15.8093L101.938 15.432L102.864 15.0547C100.988 10.4497 98.0479 6.79035 94.0496 4.10578L93.4921 4.936ZM101.938 15.432L101.016 15.8191C102.816 20.1075 103.726 24.9479 103.726 30.356H104.726H105.726C105.726 24.7215 104.777 19.6125 102.86 15.045L101.938 15.432ZM104.726 30.356H103.726V34.948H104.726H105.726V30.356H104.726ZM104.726 34.948H103.726C103.726 38.7439 103.245 42.3711 102.286 45.8331L103.25 46.1L104.214 46.3669C105.223 42.7222 105.726 38.9148 105.726 34.948H104.726ZM103.25 46.1L102.284 45.8433C101.386 49.2228 99.9381 52.2191 97.944 54.8429L98.7401 55.448L99.5363 56.0531C101.697 53.2103 103.256 49.9746 104.217 46.3568L103.25 46.1ZM98.7401 55.448L97.9421 54.8454C96.023 57.3869 93.5005 59.4214 90.351 60.9437L90.7861 61.844L91.2213 62.7444C94.6317 61.096 97.4119 58.8665 99.5382 56.0506L98.7401 55.448ZM90.7861 61.844L90.3632 60.9378C87.2476 62.3918 83.4366 63.14 78.8961 63.14V64.14V65.14C83.6489 65.14 87.7646 64.3577 91.209 62.7503L90.7861 61.844ZM78.8961 53.48V54.48C84.0147 54.48 87.94 52.7078 90.4618 49.0451L89.6381 48.478L88.8145 47.9109C86.7443 50.9176 83.5082 52.48 78.8961 52.48V53.48ZM89.6381 48.478L90.466 49.0389C92.9299 45.4018 94.0821 39.9105 94.0821 32.734H93.0821H92.0821C92.0821 39.7709 90.9384 44.7756 88.8102 47.9172L89.6381 48.478ZM93.0821 32.734H94.0821C94.0821 25.1398 92.9094 19.4832 90.3643 15.991L89.5561 16.58L88.748 17.169C90.9042 20.1275 92.0821 25.2402 92.0821 32.734H93.0821ZM89.5561 16.58L90.3689 15.9975C87.7952 12.4063 83.9089 10.66 78.8961 10.66V11.66V12.66C83.3954 12.66 86.6157 14.1938 88.7433 17.1626L89.5561 16.58ZM78.8961 11.66V10.66C73.8329 10.66 69.8953 12.4028 67.2657 15.9887L68.0721 16.58L68.8785 17.1714C71.0596 14.1972 74.338 12.66 78.8961 12.66V11.66ZM68.0721 16.58L67.264 15.991C64.7201 19.4815 63.5461 25.0813 63.5461 32.57H64.5461H65.5461C65.5461 25.1894 66.7228 20.1292 68.8803 17.169L68.0721 16.58ZM64.5461 32.57H63.5461C63.5461 39.8021 64.7258 45.3259 67.2504 48.9659L68.0721 48.396L68.8938 47.8261C66.7171 44.6875 65.5461 39.6606 65.5461 32.57H64.5461ZM68.0721 48.396L67.2504 48.9659C69.8233 52.6757 73.7704 54.48 78.8961 54.48V53.48V52.48C74.2911 52.48 71.0222 50.895 68.8938 47.8261L68.0721 48.396ZM115.129 62.582H114.129V63.582H115.129V62.582ZM116.277 44.542L115.362 44.1384L115.357 44.1498L115.352 44.1613L116.277 44.542ZM120.213 39.622L120.831 40.4075L120.834 40.4051L120.213 39.622ZM127.511 35.44L127.911 36.3566L127.916 36.3541L127.511 35.44ZM137.679 30.93L138.084 31.8442L138.094 31.8397L137.679 30.93ZM143.419 26.748L142.64 26.1203L142.638 26.1233L143.419 26.748ZM142.845 13.382L142.126 14.0778L142.137 14.0892L142.149 14.1003L142.845 13.382ZM128.167 13.382L127.459 12.6749L127.454 12.6805L127.448 12.6862L128.167 13.382ZM125.625 20.68V21.68H126.625V20.68H125.625ZM114.391 20.68H113.391V21.68H114.391V20.68ZM116.769 10.676L117.65 11.1492L117.653 11.1424L116.769 10.676ZM123.821 3.624L124.298 4.50256L124.31 4.49598L123.821 3.624ZM154.325 10.348L153.451 10.8351L153.455 10.8423L154.325 10.348ZM152.931 31.996L153.692 32.6445L153.698 32.6376L152.931 31.996ZM141.861 39.704L142.266 40.6182L142.271 40.6161L141.861 39.704ZM131.693 44.214L132.087 45.1332L132.098 45.1281L131.693 44.214ZM127.675 46.838L128.427 47.4965L128.437 47.4853L128.447 47.4737L127.675 46.838ZM126.527 55.694L125.79 56.3707L127.527 58.2602V55.694H126.527ZM123.739 52.66V51.66H121.462L123.002 53.3367L123.739 52.66ZM156.949 52.66H157.949V51.66H156.949V52.66ZM156.949 62.582V63.582H157.949V62.582H156.949ZM115.129 62.582H116.129V51.102H115.129H114.129V62.582H115.129ZM115.129 51.102H116.129C116.129 48.6863 116.496 46.6345 117.201 44.9228L116.277 44.542L115.352 44.1613C114.526 46.1669 114.129 48.4884 114.129 51.102H115.129ZM116.277 44.542L117.192 44.9457C117.937 43.2552 119.139 41.741 120.831 40.4075L120.213 39.622L119.594 38.8365C117.678 40.3457 116.256 42.1116 115.362 44.1384L116.277 44.542ZM120.213 39.622L120.834 40.4051C122.605 38.9992 124.955 37.6461 127.911 36.3566L127.511 35.44L127.111 34.5235C124.052 35.858 121.538 37.2929 119.591 38.8389L120.213 39.622ZM127.511 35.44L127.916 36.3541L138.084 31.8442L137.679 30.93L137.273 30.0159L127.105 34.5259L127.511 35.44ZM137.679 30.93L138.094 31.8397C140.708 30.6464 142.764 29.1675 144.199 27.3727L143.419 26.748L142.638 26.1233C141.45 27.6086 139.679 28.9176 137.263 30.0203L137.679 30.93ZM143.419 26.748L144.197 27.3758C145.735 25.4688 146.469 23.0738 146.469 20.27H145.469H144.469C144.469 22.7142 143.836 24.6379 142.64 26.1203L143.419 26.748ZM145.469 20.27H146.469C146.469 17.1573 145.521 14.5821 143.54 12.6638L142.845 13.382L142.149 14.1003C143.667 15.5712 144.469 17.5881 144.469 20.27H145.469ZM142.845 13.382L143.563 12.6862C141.628 10.6886 138.902 9.758 135.547 9.758V10.758V11.758C138.532 11.758 140.672 12.5768 142.126 14.0778L142.845 13.382ZM135.547 10.758V9.758C132.189 9.758 129.445 10.6892 127.459 12.6749L128.167 13.382L128.874 14.0891C130.387 12.5762 132.563 11.758 135.547 11.758V10.758ZM128.167 13.382L127.448 12.6862C125.526 14.6702 124.625 17.38 124.625 20.68H125.625H126.625C126.625 17.7481 127.417 15.5925 128.885 14.0778L128.167 13.382ZM125.625 20.68V19.68H114.391V20.68V21.68H125.625V20.68ZM114.391 20.68H115.391C115.391 17.1094 116.151 13.9403 117.65 11.1492L116.769 10.676L115.888 10.2029C114.216 13.3158 113.391 16.816 113.391 20.68H114.391ZM116.769 10.676L117.653 11.1424C119.142 8.31807 121.348 6.10733 124.298 4.50256L123.821 3.624L123.343 2.74551C120.062 4.53008 117.565 7.0206 115.884 10.2096L116.769 10.676ZM123.821 3.624L124.31 4.49598C127.237 2.85298 130.964 2 135.547 2V1V0C130.726 0 126.636 0.896356 123.331 2.75201L123.821 3.624ZM135.547 1V2C140.133 2 143.865 2.8273 146.795 4.42048L147.273 3.542L147.75 2.66352C144.448 0.867362 140.362 0 135.547 0V1ZM147.273 3.542L146.795 4.42048C149.76 6.03317 151.966 8.17244 153.451 10.8351L154.325 10.348L155.198 9.86093C153.512 6.83823 151.017 4.44017 147.75 2.66352L147.273 3.542ZM154.325 10.348L153.455 10.8423C154.949 13.4686 155.703 16.4121 155.703 19.696H156.703H157.703C157.703 16.0919 156.871 12.8035 155.194 9.8537L154.325 10.348ZM156.703 19.696H155.703V20.762H156.703H157.703V19.696H156.703ZM156.703 20.762H155.703C155.703 25.0458 154.506 28.5533 152.164 31.3545L152.931 31.996L153.698 32.6376C156.384 29.4254 157.703 25.4436 157.703 20.762H156.703ZM152.931 31.996L152.169 31.3476C149.78 34.1527 146.229 36.6445 141.451 38.7919L141.861 39.704L142.271 40.6161C147.223 38.3902 151.052 35.7434 153.692 32.6445L152.931 31.996ZM141.861 39.704L141.455 38.7899L131.287 43.2999L131.693 44.214L132.098 45.1281L142.266 40.6182L141.861 39.704ZM131.693 44.214L131.299 43.2949C129.331 44.1381 127.819 45.0902 126.903 46.2023L127.675 46.838L128.447 47.4737C129.061 46.7272 130.227 45.93 132.087 45.1332L131.693 44.214ZM127.675 46.838L126.922 46.1795C125.952 47.2878 125.527 48.7513 125.527 50.446H126.527H127.527C127.527 49.0795 127.866 48.1376 128.427 47.4965L127.675 46.838ZM126.527 50.446H125.527V55.694H126.527H127.527V50.446H126.527ZM126.527 55.694L127.263 55.0174L124.475 51.9834L123.739 52.66L123.002 53.3367L125.79 56.3707L126.527 55.694ZM123.739 52.66V53.66H156.949V52.66V51.66H123.739V52.66ZM156.949 52.66H155.949V62.582H156.949H157.949V52.66H156.949ZM156.949 62.582V61.582H115.129V62.582V63.582H156.949V62.582ZM166.539 62.582H165.539V63.582H166.539V62.582ZM167.687 44.542L166.772 44.1384L166.767 44.1498L166.762 44.1613L167.687 44.542ZM171.623 39.622L172.242 40.4075L172.245 40.4051L171.623 39.622ZM178.921 35.44L179.321 36.3566L179.326 36.3541L178.921 35.44ZM189.089 30.93L189.494 31.8442L189.504 31.8397L189.089 30.93ZM194.829 26.748L194.05 26.1203L194.048 26.1233L194.829 26.748ZM194.255 13.382L193.537 14.0778L193.548 14.0892L193.559 14.1003L194.255 13.382ZM179.577 13.382L178.87 12.6749L178.864 12.6805L178.859 12.6862L179.577 13.382ZM177.035 20.68V21.68H178.035V20.68H177.035ZM165.801 20.68H164.801V21.68H165.801V20.68ZM168.179 10.676L169.06 11.1492L169.063 11.1424L168.179 10.676ZM175.231 3.624L175.709 4.50256L175.72 4.49598L175.231 3.624ZM205.735 10.348L204.861 10.8351L204.865 10.8423L205.735 10.348ZM204.341 31.996L205.102 32.6445L205.108 32.6376L204.341 31.996ZM193.271 39.704L193.676 40.6182L193.681 40.6161L193.271 39.704ZM183.103 44.214L183.497 45.1332L183.508 45.1281L183.103 44.214ZM179.085 46.838L179.837 47.4965L179.847 47.4853L179.857 47.4737L179.085 46.838ZM177.937 55.694L177.2 56.3707L178.937 58.2602V55.694H177.937ZM175.149 52.66V51.66H172.872L174.412 53.3367L175.149 52.66ZM208.359 52.66H209.359V51.66H208.359V52.66ZM208.359 62.582V63.582H209.359V62.582H208.359ZM166.539 62.582H167.539V51.102H166.539H165.539V62.582H166.539ZM166.539 51.102H167.539C167.539 48.6863 167.907 46.6345 168.611 44.9228L167.687 44.542L166.762 44.1613C165.936 46.1669 165.539 48.4884 165.539 51.102H166.539ZM167.687 44.542L168.602 44.9457C169.347 43.2552 170.549 41.741 172.242 40.4075L171.623 39.622L171.004 38.8365C169.088 40.3457 167.666 42.1116 166.772 44.1384L167.687 44.542ZM171.623 39.622L172.245 40.4051C174.015 38.9992 176.366 37.6461 179.321 36.3566L178.921 35.44L178.521 34.5235C175.463 35.858 172.948 37.2929 171.001 38.8389L171.623 39.622ZM178.921 35.44L179.326 36.3541L189.494 31.8442L189.089 30.93L188.683 30.0159L178.515 34.5259L178.921 35.44ZM189.089 30.93L189.504 31.8397C192.118 30.6464 194.174 29.1675 195.61 27.3727L194.829 26.748L194.048 26.1233C192.86 27.6086 191.089 28.9176 188.673 30.0203L189.089 30.93ZM194.829 26.748L195.607 27.3758C197.145 25.4688 197.879 23.0738 197.879 20.27H196.879H195.879C195.879 22.7142 195.246 24.6379 194.05 26.1203L194.829 26.748ZM196.879 20.27H197.879C197.879 17.1573 196.931 14.5821 194.951 12.6638L194.255 13.382L193.559 14.1003C195.077 15.5712 195.879 17.5881 195.879 20.27H196.879ZM194.255 13.382L194.973 12.6862C193.038 10.6886 190.313 9.758 186.957 9.758V10.758V11.758C189.942 11.758 192.082 12.5768 193.537 14.0778L194.255 13.382ZM186.957 10.758V9.758C183.599 9.758 180.855 10.6892 178.87 12.6749L179.577 13.382L180.284 14.0891C181.797 12.5762 183.973 11.758 186.957 11.758V10.758ZM179.577 13.382L178.859 12.6862C176.937 14.6702 176.035 17.38 176.035 20.68H177.035H178.035C178.035 17.7481 178.828 15.5925 180.295 14.0778L179.577 13.382ZM177.035 20.68V19.68H165.801V20.68V21.68H177.035V20.68ZM165.801 20.68H166.801C166.801 17.1094 167.561 13.9403 169.06 11.1492L168.179 10.676L167.298 10.2029C165.626 13.3158 164.801 16.816 164.801 20.68H165.801ZM168.179 10.676L169.063 11.1424C170.553 8.31807 172.758 6.10733 175.709 4.50256L175.231 3.624L174.753 2.74551C171.472 4.53008 168.976 7.0206 167.294 10.2096L168.179 10.676ZM175.231 3.624L175.72 4.49598C178.647 2.85298 182.374 2 186.957 2V1V0C182.136 0 178.047 0.896356 174.741 2.75201L175.231 3.624ZM186.957 1V2C191.544 2 195.276 2.8273 198.205 4.42048L198.683 3.542L199.161 2.66352C195.858 0.867362 191.773 0 186.957 0V1ZM198.683 3.542L198.205 4.42048C201.17 6.03317 203.376 8.17244 204.861 10.8351L205.735 10.348L206.608 9.86093C204.922 6.83823 202.427 4.44017 199.161 2.66352L198.683 3.542ZM205.735 10.348L204.865 10.8423C206.359 13.4686 207.113 16.4121 207.113 19.696H208.113H209.113C209.113 16.0919 208.281 12.8035 206.604 9.8537L205.735 10.348ZM208.113 19.696H207.113V20.762H208.113H209.113V19.696H208.113ZM208.113 20.762H207.113C207.113 25.0458 205.916 28.5533 203.574 31.3545L204.341 31.996L205.108 32.6376C207.794 29.4254 209.113 25.4436 209.113 20.762H208.113ZM204.341 31.996L203.579 31.3476C201.19 34.1527 197.639 36.6445 192.861 38.7919L193.271 39.704L193.681 40.6161C198.633 38.3902 202.462 35.7434 205.102 32.6445L204.341 31.996ZM193.271 39.704L192.865 38.7899L182.697 43.2999L183.103 44.214L183.508 45.1281L193.676 40.6182L193.271 39.704ZM183.103 44.214L182.709 43.2949C180.741 44.1381 179.229 45.0902 178.313 46.2023L179.085 46.838L179.857 47.4737C180.471 46.7272 181.638 45.93 183.497 45.1332L183.103 44.214ZM179.085 46.838L178.332 46.1795C177.362 47.2878 176.937 48.7513 176.937 50.446H177.937H178.937C178.937 49.0795 179.276 48.1376 179.837 47.4965L179.085 46.838ZM177.937 50.446H176.937V55.694H177.937H178.937V50.446H177.937ZM177.937 55.694L178.673 55.0174L175.885 51.9834L175.149 52.66L174.412 53.3367L177.2 56.3707L177.937 55.694ZM175.149 52.66V53.66H208.359V52.66V51.66H175.149V52.66ZM208.359 52.66H207.359V62.582H208.359H209.359V52.66H208.359ZM208.359 62.582V61.582H166.539V62.582V63.582H208.359V62.582Z" fill="#0A0A0A"/>
</g>
</g>
<defs>
<linearGradient id="paint0_linear_33_861" x1="4.04885" y1="-8.418" x2="56.0649" y2="81.844" gradientUnits="userSpaceOnUse">
<stop stop-color="#3949E0"/>
<stop offset="1" stop-color="#AD73FF"/>
</linearGradient>
<clipPath id="clip0_33_861">
<rect width="210" height="66" fill="white"/>
</clipPath>
</defs>
</svg>
