<svg width="141" height="84" viewBox="0 0 141 84" fill="none" xmlns="http://www.w3.org/2000/svg">
<g clip-path="url(#clip0_33_632)">
<path d="M35.4 83.5678C29.136 83.5678 23.772 82.5598 19.308 80.5438C14.844 78.4558 11.208 75.6478 8.40005 72.1198C5.66405 68.5918 3.61205 64.5238 2.24405 59.9158C0.948049 55.2358 0.300049 50.3038 0.300049 45.1198V38.9638C0.300049 31.7638 1.56005 25.2478 4.08005 19.4158C6.60005 13.5838 10.452 8.9398 15.636 5.4838C20.82 2.0278 27.408 0.299805 35.4 0.299805C43.392 0.299805 49.944 2.0278 55.056 5.4838C60.24 8.9398 64.092 13.5838 66.612 19.4158C69.132 25.2478 70.392 31.7638 70.392 38.9638V45.1198C70.392 50.3038 69.708 55.2358 68.34 59.9158C67.044 64.5238 64.992 68.5918 62.184 72.1198C59.448 75.6478 55.848 78.4558 51.384 80.5438C46.992 82.5598 41.664 83.5678 35.4 83.5678ZM35.4 67.2598C41.232 67.2598 45.552 65.2438 48.36 61.2118C51.24 57.1078 52.68 50.7718 52.68 42.2038C52.68 33.1318 51.204 26.6158 48.252 22.6558C45.372 18.6238 41.088 16.6078 35.4 16.6078C29.568 16.6078 25.212 18.6238 22.332 22.6558C19.452 26.6158 18.012 33.0598 18.012 41.9878C18.012 50.6278 19.416 56.9998 22.224 61.1038C25.104 65.2078 29.496 67.2598 35.4 67.2598ZM109.995 83.5678C103.875 83.5678 98.5471 82.4518 94.0111 80.2198C89.5471 77.9158 86.1271 74.8198 83.7511 70.9318C81.3751 67.0438 80.1871 62.6518 80.1871 57.7558H97.2511C97.2511 61.0678 98.3671 63.7678 100.599 65.8558C102.831 67.8718 105.963 68.8798 109.995 68.8798C112.659 68.8798 114.927 68.3758 116.799 67.3678C118.671 66.3598 120.111 64.9918 121.119 63.2638C122.127 61.4638 122.631 59.4478 122.631 57.2158C122.631 53.7598 121.515 50.9158 119.283 48.6838C117.123 46.4518 114.027 45.3358 109.995 45.3358C107.835 45.3358 105.927 45.6598 104.271 46.3078C102.687 46.9558 101.319 47.7478 100.167 48.6838L92.1751 35.1838L116.043 19.6318L115.071 17.7958H83.4271V2.6758H136.563V19.0918L109.023 36.5878L100.383 34.2118C101.823 33.7798 103.335 33.4558 104.919 33.2398C106.575 32.9518 108.339 32.8078 110.211 32.8078C116.331 32.8078 121.587 33.8158 125.979 35.8318C130.371 37.8478 133.755 40.6918 136.131 44.3638C138.579 47.9638 139.803 52.1758 139.803 56.9998V58.2958C139.803 63.1198 138.579 67.4398 136.131 71.2558C133.755 75.0718 130.335 78.0958 125.871 80.3278C121.479 82.4878 116.187 83.5678 109.995 83.5678Z" fill="url(#paint0_linear_33_632)" fill-opacity="0.1"/>
<path d="M19.308 80.544L19.1809 80.8158L19.1846 80.8174L19.308 80.544ZM8.4 72.12L8.16292 72.3039L8.16528 72.3068L8.4 72.12ZM2.244 59.916L1.95484 59.9961L1.95641 60.0014L2.244 59.916ZM55.056 5.484L54.888 5.73254L54.8896 5.73361L55.056 5.484ZM68.34 59.916L68.0521 59.8319L68.0513 59.8348L68.34 59.916ZM62.184 72.12L61.9493 71.9332L61.947 71.9362L62.184 72.12ZM51.384 80.544L51.5092 80.8167L51.5112 80.8158L51.384 80.544ZM48.36 61.212L48.1145 61.0397L48.1139 61.0406L48.36 61.212ZM48.252 22.656L48.0079 22.8304L48.0115 22.8353L48.252 22.656ZM22.332 22.656L22.5747 22.8325L22.5762 22.8304L22.332 22.656ZM22.224 61.104L21.9764 61.2734L21.9785 61.2764L22.224 61.104ZM35.4 83.568V83.268C29.1672 83.268 23.8475 82.2649 19.4315 80.2706L19.308 80.544L19.1846 80.8174C23.6966 82.8551 29.1049 83.868 35.4 83.868V83.568ZM19.308 80.544L19.4351 80.2723C15.0091 78.202 11.4113 75.4217 8.63473 71.9332L8.4 72.12L8.16528 72.3068C11.0048 75.8744 14.679 78.71 19.1809 80.8158L19.308 80.544ZM8.4 72.12L8.63707 71.9362C5.92557 68.4398 3.88982 64.4057 2.5316 59.8306L2.244 59.916L1.95641 60.0014C3.33418 64.6423 5.40242 68.7443 8.16292 72.3039L8.4 72.12ZM2.244 59.916L2.53312 59.836C1.24481 55.1837 0.6 50.2788 0.6 45.12H0.3H0C0 50.3293 0.65115 55.2883 1.95484 59.9961L2.244 59.916ZM0.3 45.12H0.6V38.964H0.3H0V45.12H0.3ZM0.3 38.964H0.6C0.6 31.7995 1.85366 25.3248 4.35539 19.535L4.08 19.416L3.80461 19.297C1.26635 25.1713 0 31.7285 0 38.964H0.3ZM4.08 19.416L4.35539 19.535C6.85291 13.7551 10.6676 9.15684 15.8025 5.73361L15.636 5.484L15.4696 5.23438C10.2365 8.72316 6.3471 13.413 3.80461 19.297L4.08 19.416ZM15.636 5.484L15.8025 5.73361C20.925 2.31862 27.4506 0.6 35.4 0.6V0.3V0C27.3655 0 20.7151 1.73738 15.4696 5.23438L15.636 5.484ZM35.4 0.3V0.6C43.3497 0.6 49.8384 2.31872 54.888 5.73254L55.056 5.484L55.2241 5.23547C50.0497 1.7373 43.4344 0 35.4 0V0.3ZM55.056 5.484L54.8896 5.73361C60.0245 9.15684 63.8391 13.7551 66.3367 19.535L66.612 19.416L66.8874 19.297C64.345 13.413 60.4556 8.72316 55.2225 5.23438L55.056 5.484ZM66.612 19.416L66.3367 19.535C68.8384 25.3248 70.092 31.7995 70.092 38.964H70.392H70.692C70.692 31.7285 69.4257 25.1713 66.8874 19.297L66.612 19.416ZM70.392 38.964H70.092V45.12H70.392H70.692V38.964H70.392ZM70.392 45.12H70.092C70.092 50.2773 69.4116 55.1809 68.0521 59.8319L68.34 59.916L68.628 60.0002C70.0045 55.2912 70.692 50.3307 70.692 45.12H70.392ZM68.34 59.916L68.0513 59.8348C66.7654 64.4068 64.7309 68.4383 61.9493 71.9332L62.184 72.12L62.4188 72.3068C65.2532 68.7457 67.3227 64.6413 68.6288 59.9972L68.34 59.916ZM62.184 72.12L61.947 71.9362C59.2431 75.4228 55.6824 78.2023 51.2569 80.2723L51.384 80.544L51.5112 80.8158C56.0137 78.7097 59.653 75.8733 62.4211 72.3039L62.184 72.12ZM51.384 80.544L51.2589 80.2714C46.916 82.2649 41.6331 83.268 35.4 83.268V83.568V83.868C41.695 83.868 47.0681 82.8552 51.5092 80.8167L51.384 80.544ZM35.4 67.26V67.56C41.3092 67.56 45.7311 65.5118 48.6062 61.3835L48.36 61.212L48.1139 61.0406C45.373 64.9762 41.1549 66.96 35.4 66.96V67.26ZM48.36 61.212L48.6056 61.3844C51.5383 57.2053 52.98 50.7946 52.98 42.204H52.68H52.38C52.38 50.7494 50.9418 57.0108 48.1145 61.0397L48.36 61.212ZM52.68 42.204H52.98C52.98 33.1145 51.5041 26.5166 48.4926 22.4767L48.252 22.656L48.0115 22.8353C50.904 26.7155 52.38 33.1496 52.38 42.204H52.68ZM48.252 22.656L48.4962 22.4817C45.5509 18.3583 41.1684 16.308 35.4 16.308V16.608V16.908C41.0076 16.908 45.1932 18.8898 48.0079 22.8304L48.252 22.656ZM35.4 16.608V16.308C29.4907 16.308 25.0347 18.3561 22.0879 22.4817L22.332 22.656L22.5762 22.8304C25.3894 18.8919 29.6454 16.908 35.4 16.908V16.608ZM22.332 22.656L22.0894 22.4796C19.1522 26.5183 17.712 33.0421 17.712 41.988H18.012H18.312C18.312 33.0779 19.7519 26.7138 22.5747 22.8325L22.332 22.656ZM18.012 41.988H17.712C17.712 50.649 19.1172 57.0947 21.9764 61.2734L22.224 61.104L22.4716 60.9346C19.7148 56.9054 18.312 50.607 18.312 41.988H18.012ZM22.224 61.104L21.9785 61.2764C24.9252 65.4754 29.4182 67.56 35.4 67.56V67.26V66.96C29.5739 66.96 25.2829 64.9407 22.4696 60.9317L22.224 61.104ZM94.0111 80.22L93.8735 80.4867L93.8787 80.4892L94.0111 80.22ZM80.1871 57.756V57.456H79.8871V57.756H80.1871ZM97.2511 57.756H97.5511V57.456H97.2511V57.756ZM100.599 65.856L100.394 66.0751L100.398 66.0787L100.599 65.856ZM121.119 63.264L121.378 63.4152L121.381 63.4106L121.119 63.264ZM119.283 48.684L119.068 48.8927L119.071 48.8962L119.283 48.684ZM104.271 46.308L104.162 46.0286L104.158 46.0304L104.271 46.308ZM100.167 48.684L99.909 48.8369L100.086 49.1363L100.356 48.9169L100.167 48.684ZM92.1751 35.184L92.0114 34.9327L91.7706 35.0896L91.917 35.3369L92.1751 35.184ZM116.043 19.632L116.207 19.8834L116.436 19.7338L116.308 19.4917L116.043 19.632ZM115.071 17.796L115.336 17.6557L115.252 17.496H115.071V17.796ZM83.4271 17.796H83.1271V18.096H83.4271V17.796ZM83.4271 2.676V2.376H83.1271V2.676H83.4271ZM136.563 2.676H136.863V2.376H136.563V2.676ZM136.563 19.092L136.724 19.3452L136.863 19.2569V19.092H136.563ZM109.023 36.588L108.944 36.8773L109.072 36.9125L109.184 36.8412L109.023 36.588ZM100.383 34.212L100.297 33.9247L99.2973 34.2246L100.304 34.5013L100.383 34.212ZM104.919 33.24L104.96 33.5375L104.971 33.5356L104.919 33.24ZM136.131 44.364L135.879 44.527L135.883 44.5327L136.131 44.364ZM136.131 71.256L135.879 71.094L135.876 71.0975L136.131 71.256ZM125.871 80.328L126.004 80.5972L126.005 80.5964L125.871 80.328ZM109.995 83.568V83.268C103.912 83.268 98.6306 82.1587 94.1436 79.9508L94.0111 80.22L93.8787 80.4892C98.4637 82.7453 103.839 83.868 109.995 83.868V83.568ZM94.0111 80.22L94.1487 79.9534C89.7283 77.672 86.3516 74.612 84.0071 70.7756L83.7511 70.932L83.4952 71.0885C85.9027 75.028 89.3659 78.1602 93.8735 80.4867L94.0111 80.22ZM83.7511 70.932L84.0071 70.7756C81.6621 66.9382 80.4871 62.6011 80.4871 57.756H80.1871H79.8871C79.8871 62.703 81.0882 67.1498 83.4952 71.0885L83.7511 70.932ZM80.1871 57.756V58.056H97.2511V57.756V57.456H80.1871V57.756ZM97.2511 57.756H96.9511C96.9511 61.1433 98.0961 63.9253 100.394 66.0751L100.599 65.856L100.804 65.6369C98.6382 63.6108 97.5511 60.9927 97.5511 57.756H97.2511ZM100.599 65.856L100.398 66.0787C102.702 68.1593 105.915 69.18 109.995 69.18V68.88V68.58C106.012 68.58 102.961 67.5847 100.8 65.6334L100.599 65.856ZM109.995 68.88V69.18C112.696 69.18 115.016 68.6689 116.941 67.6322L116.799 67.368L116.657 67.1039C114.838 68.0831 112.622 68.58 109.995 68.58V68.88ZM116.799 67.368L116.941 67.6322C118.859 66.5997 120.341 65.1939 121.378 63.4152L121.119 63.264L120.86 63.1129C119.882 64.7901 118.483 66.1204 116.657 67.1039L116.799 67.368ZM121.119 63.264L121.381 63.4106C122.416 61.5622 122.931 59.495 122.931 57.216H122.631H122.331C122.331 59.401 121.838 61.3659 120.857 63.1174L121.119 63.264ZM122.631 57.216H122.931C122.931 53.6888 121.789 50.7658 119.495 48.4719L119.283 48.684L119.071 48.8962C121.241 51.0663 122.331 53.8313 122.331 57.216H122.631ZM119.283 48.684L119.499 48.4754C117.267 46.169 114.083 45.036 109.995 45.036V45.336V45.636C113.971 45.636 116.98 46.7352 119.068 48.8927L119.283 48.684ZM109.995 45.336V45.036C107.806 45.036 105.859 45.3643 104.162 46.0286L104.271 46.308L104.38 46.5874C105.995 45.9556 107.865 45.636 109.995 45.636V45.336ZM104.271 46.308L104.158 46.0304C102.55 46.6878 101.156 47.494 99.978 48.4512L100.167 48.684L100.356 48.9169C101.482 48.002 102.824 47.2242 104.385 46.5857L104.271 46.308ZM100.167 48.684L100.425 48.5312L92.4333 35.0312L92.1751 35.184L91.917 35.3369L99.909 48.8369L100.167 48.684ZM92.1751 35.184L92.3389 35.4354L116.207 19.8834L116.043 19.632L115.879 19.3807L92.0114 34.9327L92.1751 35.184ZM116.043 19.632L116.308 19.4917L115.336 17.6557L115.071 17.796L114.806 17.9364L115.778 19.7724L116.043 19.632ZM115.071 17.796V17.496H83.4271V17.796V18.096H115.071V17.796ZM83.4271 17.796H83.7271V2.676H83.4271H83.1271V17.796H83.4271ZM83.4271 2.676V2.976H136.563V2.676V2.376H83.4271V2.676ZM136.563 2.676H136.263V19.092H136.563H136.863V2.676H136.563ZM136.563 19.092L136.402 18.8388L108.862 36.3348L109.023 36.588L109.184 36.8412L136.724 19.3452L136.563 19.092ZM109.023 36.588L109.103 36.2988L100.463 33.9228L100.383 34.212L100.304 34.5013L108.944 36.8773L109.023 36.588ZM100.383 34.212L100.469 34.4994C101.893 34.0721 103.39 33.7515 104.96 33.5375L104.919 33.24L104.879 32.9428C103.28 33.1607 101.753 33.4879 100.297 33.9247L100.383 34.212ZM104.919 33.24L104.971 33.5356C106.608 33.2508 108.354 33.108 110.211 33.108V32.808V32.508C108.324 32.508 106.542 32.6532 104.868 32.9445L104.919 33.24ZM110.211 32.808V33.108C116.299 33.108 121.51 34.1108 125.854 36.1047L125.979 35.832L126.104 35.5594C121.664 33.5212 116.363 32.508 110.211 32.508V32.808ZM125.979 35.832L125.854 36.1047C130.2 38.0995 133.537 40.9078 135.879 44.527L136.131 44.364L136.383 44.201C133.973 40.4763 130.542 37.5966 126.104 35.5594L125.979 35.832ZM136.131 44.364L135.883 44.5327C138.294 48.0776 139.503 52.2294 139.503 57H139.803H140.103C140.103 52.1226 138.865 47.8504 136.379 44.1953L136.131 44.364ZM139.803 57H139.503V58.296H139.803H140.103V57H139.803ZM139.803 58.296H139.503C139.503 63.0664 138.294 67.3295 135.879 71.094L136.131 71.256L136.384 71.418C138.865 67.5505 140.103 63.1736 140.103 58.296H139.803ZM136.131 71.256L135.876 71.0975C133.533 74.8614 130.157 77.8496 125.737 80.0597L125.871 80.328L126.005 80.5964C130.513 78.3424 133.977 75.2827 136.386 71.4146L136.131 71.256ZM125.871 80.328L125.739 80.0588C121.397 82.1939 116.153 83.268 109.995 83.268V83.568V83.868C116.221 83.868 121.561 82.7821 126.004 80.5972L125.871 80.328Z" fill="#0A0A0A"/>
</g>
<defs>
<linearGradient id="paint0_linear_33_632" x1="69.644" y1="-23.4842" x2="69.644" y2="112.516" gradientUnits="userSpaceOnUse">
<stop stop-color="#AD73FF"/>
<stop offset="1" stop-color="#3949E0"/>
</linearGradient>
<clipPath id="clip0_33_632">
<rect width="141" height="84" fill="white"/>
</clipPath>
</defs>
</svg>
