<svg width="148" height="84" viewBox="0 0 148 84" fill="none" xmlns="http://www.w3.org/2000/svg">
<g clip-path="url(#clip0_33_636)">
<path d="M35.4001 83.5786C29.1361 83.5786 23.7721 82.5706 19.3081 80.5546C14.8441 78.4666 11.2081 75.6586 8.40005 72.1306C5.66405 68.6026 3.61205 64.5346 2.24405 59.9266C0.948049 55.2466 0.300049 50.3146 0.300049 45.1306V38.9746C0.300049 31.7746 1.56005 25.2586 4.08005 19.4266C6.60005 13.5946 10.4521 8.95054 15.6361 5.49454C20.8201 2.03854 27.4081 0.310547 35.4001 0.310547C43.3921 0.310547 49.9441 2.03854 55.0561 5.49454C60.2401 8.95054 64.0921 13.5946 66.6121 19.4266C69.1321 25.2586 70.3921 31.7746 70.3921 38.9746V45.1306C70.3921 50.3146 69.7081 55.2466 68.3401 59.9266C67.0441 64.5346 64.9921 68.6026 62.1841 72.1306C59.4481 75.6586 55.8481 78.4666 51.3841 80.5546C46.9921 82.5706 41.6641 83.5786 35.4001 83.5786ZM35.4001 67.2706C41.2321 67.2706 45.5521 65.2546 48.3601 61.2226C51.2401 57.1186 52.6801 50.7826 52.6801 42.2146C52.6801 33.1426 51.2041 26.6266 48.2521 22.6666C45.3721 18.6346 41.0881 16.6186 35.4001 16.6186C29.5681 16.6186 25.2121 18.6346 22.3321 22.6666C19.4521 26.6266 18.0121 33.0706 18.0121 41.9986C18.0121 50.6386 19.4161 57.0106 22.2241 61.1146C25.1041 65.2186 29.4961 67.2706 35.4001 67.2706ZM80.0792 66.4066V47.9386L109.995 0.418545L123.711 9.38254L98.1152 50.0986L99.6272 52.3666H146.823V66.4066H80.0792ZM121.443 81.5266V24.7186H137.751V81.5266H121.443Z" fill="url(#paint0_linear_33_636)" fill-opacity="0.1"/>
<path d="M19.308 80.5541L19.1809 80.8258L19.1845 80.8275L19.308 80.5541ZM8.4 72.1301L8.16292 72.3139L8.16527 72.3169L8.4 72.1301ZM2.244 59.9261L1.95483 60.0061L1.95641 60.0114L2.244 59.9261ZM55.056 5.49406L54.888 5.7426L54.8896 5.74368L55.056 5.49406ZM68.34 59.9261L68.052 59.8419L68.0512 59.8448L68.34 59.9261ZM62.184 72.1301L61.9492 71.9432L61.9469 71.9462L62.184 72.1301ZM51.384 80.5541L51.5091 80.8267L51.5111 80.8258L51.384 80.5541ZM48.36 61.2221L48.1144 61.0497L48.1138 61.0506L48.36 61.2221ZM48.252 22.6661L48.0078 22.8405L48.0115 22.8454L48.252 22.6661ZM22.332 22.6661L22.5746 22.8425L22.5761 22.8404L22.332 22.6661ZM22.224 61.1141L21.9764 61.2835L21.9784 61.2864L22.224 61.1141ZM35.4 83.5781V83.2781C29.1671 83.2781 23.8474 82.275 19.4315 80.2807L19.308 80.5541L19.1845 80.8275C23.6965 82.8652 29.1048 83.8781 35.4 83.8781V83.5781ZM19.308 80.5541L19.4351 80.2823C15.0091 78.2121 11.4113 75.4317 8.63473 71.9432L8.4 72.1301L8.16527 72.3169C11.0047 75.8844 14.6789 78.72 19.1809 80.8258L19.308 80.5541ZM8.4 72.1301L8.63707 71.9462C5.92557 68.4498 3.88982 64.4158 2.5316 59.8407L2.244 59.9261L1.95641 60.0114C3.33418 64.6524 5.40242 68.7543 8.16292 72.3139L8.4 72.1301ZM2.244 59.9261L2.53312 59.846C1.24481 55.1938 0.6 50.2888 0.6 45.1301H0.3H0C0 50.3393 0.65114 55.2984 1.95483 60.0061L2.244 59.9261ZM0.3 45.1301H0.6V38.9741H0.3H0V45.1301H0.3ZM0.3 38.9741H0.6C0.6 31.8096 1.85366 25.3348 4.35539 19.5451L4.08 19.4261L3.80461 19.3071C1.26635 25.1813 0 31.7386 0 38.9741H0.3ZM4.08 19.4261L4.35539 19.5451C6.85291 13.7651 10.6676 9.1669 15.8024 5.74368L15.636 5.49406L15.4696 5.24445C10.2364 8.73323 6.3471 13.423 3.80461 19.3071L4.08 19.4261ZM15.636 5.49406L15.8024 5.74368C20.9249 2.32868 27.4506 0.610063 35.4 0.610063V0.310063V0.0100628C27.3654 0.0100628 20.7151 1.74744 15.4696 5.24445L15.636 5.49406ZM35.4 0.310063V0.610063C43.3496 0.610063 49.8383 2.32878 54.888 5.7426L55.056 5.49406L55.224 5.24553C50.0496 1.74736 43.4343 0.0100628 35.4 0.0100628V0.310063ZM55.056 5.49406L54.8896 5.74368C60.0244 9.1669 63.8391 13.7651 66.3366 19.5451L66.612 19.4261L66.8874 19.3071C64.3449 13.423 60.4556 8.73323 55.2224 5.24445L55.056 5.49406ZM66.612 19.4261L66.3366 19.5451C68.8383 25.3348 70.092 31.8096 70.092 38.9741H70.392H70.692C70.692 31.7386 69.4256 25.1813 66.8874 19.3071L66.612 19.4261ZM70.392 38.9741H70.092V45.1301H70.392H70.692V38.9741H70.392ZM70.392 45.1301H70.092C70.092 50.2874 69.4116 55.1909 68.052 59.8419L68.34 59.9261L68.6279 60.0102C70.0044 55.3012 70.692 50.3408 70.692 45.1301H70.392ZM68.34 59.9261L68.0512 59.8448C66.7653 64.4168 64.7308 68.4484 61.9492 71.9432L62.184 72.1301L62.4187 72.3169C65.2531 68.7557 67.3226 64.6513 68.6288 60.0073L68.34 59.9261ZM62.184 72.1301L61.9469 71.9462C59.243 75.4328 55.6823 78.2124 51.2569 80.2823L51.384 80.5541L51.5111 80.8258C56.0136 78.7198 59.653 75.8833 62.4211 72.3139L62.184 72.1301ZM51.384 80.5541L51.2588 80.2814C46.9159 82.2749 41.6331 83.2781 35.4 83.2781V83.5781V83.8781C41.6949 83.8781 47.0681 82.8652 51.5091 80.8267L51.384 80.5541ZM35.4 67.2701V67.5701C41.3092 67.5701 45.7311 65.5219 48.6062 61.3935L48.36 61.2221L48.1138 61.0506C45.3729 64.9863 41.1548 66.9701 35.4 66.9701V67.2701ZM48.36 61.2221L48.6056 61.3944C51.5382 57.2153 52.98 50.8047 52.98 42.2141H52.68H52.38C52.38 50.7595 50.9417 57.0208 48.1144 61.0497L48.36 61.2221ZM52.68 42.2141H52.98C52.98 33.1245 51.504 26.5266 48.4925 22.4868L48.252 22.6661L48.0115 22.8454C50.9039 26.7255 52.38 33.1596 52.38 42.2141H52.68ZM48.252 22.6661L48.4961 22.4917C45.5508 18.3683 41.1684 16.3181 35.4 16.3181V16.6181V16.9181C41.0076 16.9181 45.193 18.8999 48.0078 22.8405L48.252 22.6661ZM35.4 16.6181V16.3181C29.4907 16.3181 25.0347 18.3662 22.0879 22.4917L22.332 22.6661L22.5761 22.8404C25.3893 18.902 29.6453 16.9181 35.4 16.9181V16.6181ZM22.332 22.6661L22.0894 22.4896C19.1521 26.5283 17.712 33.0521 17.712 41.9981H18.012H18.312C18.312 33.088 19.7519 26.7238 22.5746 22.8425L22.332 22.6661ZM18.012 41.9981H17.712C17.712 50.6591 19.1173 57.1047 21.9764 61.2835L22.224 61.1141L22.4716 60.9447C19.7147 56.9154 18.312 50.6171 18.312 41.9981H18.012ZM22.224 61.1141L21.9784 61.2864C24.9251 65.4854 29.4181 67.5701 35.4 67.5701V67.2701V66.9701C29.5739 66.9701 25.2829 64.9507 22.4696 60.9417L22.224 61.1141ZM80.0791 66.4061H79.7791V66.7061H80.0791V66.4061ZM80.0791 47.9381L79.8252 47.7782L79.7791 47.8515V47.9381H80.0791ZM109.995 0.418061L110.159 0.166935L109.904 0L109.741 0.258232L109.995 0.418061ZM123.711 9.38206L123.965 9.54173L124.122 9.29219L123.875 9.13094L123.711 9.38206ZM98.1151 50.0981L97.8611 49.9384L97.7577 50.1029L97.8655 50.2645L98.1151 50.0981ZM99.6271 52.3661L99.3775 52.5325L99.4665 52.6661H99.6271V52.3661ZM146.823 52.3661H147.123V52.0661H146.823V52.3661ZM146.823 66.4061V66.7061H147.123V66.4061H146.823ZM121.443 81.5261H121.143V81.8261H121.443V81.5261ZM121.443 24.7181V24.4181H121.143V24.7181H121.443ZM137.751 24.7181H138.051V24.4181H137.751V24.7181ZM137.751 81.5261V81.8261H138.051V81.5261H137.751ZM80.0791 66.4061H80.3791V47.9381H80.0791H79.7791V66.4061H80.0791ZM80.0791 47.9381L80.333 48.0979L110.249 0.57789L109.995 0.418061L109.741 0.258232L79.8252 47.7782L80.0791 47.9381ZM109.995 0.418061L109.831 0.669187L123.547 9.63319L123.711 9.38206L123.875 9.13094L110.159 0.166935L109.995 0.418061ZM123.711 9.38206L123.457 9.2224L97.8611 49.9384L98.1151 50.0981L98.3691 50.2577L123.965 9.54173L123.711 9.38206ZM98.1151 50.0981L97.8655 50.2645L99.3775 52.5325L99.6271 52.3661L99.8767 52.1997L98.3647 49.9317L98.1151 50.0981ZM99.6271 52.3661V52.6661H146.823V52.3661V52.0661H99.6271V52.3661ZM146.823 52.3661H146.523V66.4061H146.823H147.123V52.3661H146.823ZM146.823 66.4061V66.1061H80.0791V66.4061V66.7061H146.823V66.4061ZM121.443 81.5261H121.743V24.7181H121.443H121.143V81.5261H121.443ZM121.443 24.7181V25.0181H137.751V24.7181V24.4181H121.443V24.7181ZM137.751 24.7181H137.451V81.5261H137.751H138.051V24.7181H137.751ZM137.751 81.5261V81.2261H121.443V81.5261V81.8261H137.751V81.5261Z" fill="#0A0A0A"/>
</g>
<defs>
<linearGradient id="paint0_linear_33_636" x1="71.6441" y1="-23.4734" x2="71.6441" y2="112.526" gradientUnits="userSpaceOnUse">
<stop stop-color="#AD73FF"/>
<stop offset="1" stop-color="#3949E0"/>
</linearGradient>
<clipPath id="clip0_33_636">
<rect width="148" height="84" fill="white"/>
</clipPath>
</defs>
</svg>
