<svg width="32" height="32" viewBox="0 0 32 32" fill="none" xmlns="http://www.w3.org/2000/svg">
<path d="M21.3337 28V25.3333C21.3337 23.9188 20.7718 22.5623 19.7716 21.5621C18.7714 20.5619 17.4148 20 16.0003 20H8.00033C6.58584 20 5.22928 20.5619 4.22909 21.5621C3.2289 22.5623 2.66699 23.9188 2.66699 25.3333V28" stroke="white" stroke-width="2.66667" stroke-linecap="round" stroke-linejoin="round"/>
<path d="M21.333 4.17188C22.4767 4.46837 23.4895 5.13623 24.2126 6.07063C24.9356 7.00502 25.3279 8.15306 25.3279 9.33454C25.3279 10.516 24.9356 11.6641 24.2126 12.5985C23.4895 13.5329 22.4767 14.2007 21.333 14.4972" stroke="white" stroke-width="2.66667" stroke-linecap="round" stroke-linejoin="round"/>
<path d="M29.333 28.001V25.3343C29.3321 24.1526 28.9388 23.0047 28.2148 22.0707C27.4908 21.1368 26.4772 20.4697 25.333 20.1743" stroke="white" stroke-width="2.66667" stroke-linecap="round" stroke-linejoin="round"/>
<path d="M12.0003 14.6667C14.9458 14.6667 17.3337 12.2789 17.3337 9.33333C17.3337 6.38781 14.9458 4 12.0003 4C9.05481 4 6.66699 6.38781 6.66699 9.33333C6.66699 12.2789 9.05481 14.6667 12.0003 14.6667Z" stroke="white" stroke-width="2.66667" stroke-linecap="round" stroke-linejoin="round"/>
</svg>
