<svg width="16" height="16" viewBox="0 0 16 16" fill="none" xmlns="http://www.w3.org/2000/svg">
<path d="M15.7354 0.818055C15.6015 0.49565 15.3453 0.239446 15.0229 0.105555C14.8643 0.0379458 14.694 0.00208471 14.5215 0H1.3271C0.977157 0 0.641551 0.139013 0.394107 0.386457C0.146663 0.6339 0.00765059 0.969506 0.00765059 1.31944C0.00765059 1.66938 0.146663 2.00499 0.394107 2.25243C0.641551 2.49988 0.977157 2.63889 1.3271 2.63889H11.3417L0.390289 13.5771C0.26662 13.6997 0.168461 13.8457 0.101475 14.0065C0.0344883 14.1672 0 14.3397 0 14.5139C0 14.6881 0.0344883 14.8605 0.101475 15.0213C0.168461 15.1821 0.26662 15.328 0.390289 15.4507C0.512949 15.5744 0.658881 15.6725 0.819667 15.7395C0.980454 15.8065 1.15291 15.841 1.3271 15.841C1.50128 15.841 1.67374 15.8065 1.83452 15.7395C1.99531 15.6725 2.14124 15.5744 2.2639 15.4507L13.2021 4.49931V14.5139C13.2021 14.8638 13.3411 15.1994 13.5885 15.4469C13.836 15.6943 14.1716 15.8333 14.5215 15.8333C14.8715 15.8333 15.2071 15.6943 15.4545 15.4469C15.702 15.1994 15.841 14.8638 15.841 14.5139V1.31944C15.8389 1.14702 15.803 0.976682 15.7354 0.818055Z" fill="#00379B"/>
</svg>
