<svg width="73" height="73" viewBox="0 0 73 73" fill="none" xmlns="http://www.w3.org/2000/svg">
<rect width="72.4489" height="72.4866" rx="36.2244" transform="matrix(-1 0 0 1 72.4492 0)" fill="#00379B"/>
<path d="M23.5388 33.7027H42.8057L34.4288 25.3512C33.9508 24.8732 33.6823 24.2248 33.6823 23.5488C33.6823 22.8729 33.9508 22.2245 34.4288 21.7465C34.9068 21.2685 35.5551 21 36.2311 21C36.9071 21 37.5554 21.2685 38.0334 21.7465L50.7257 34.4388C50.9568 34.6803 51.138 34.9649 51.2588 35.2765C51.5127 35.8946 51.5127 36.5878 51.2588 37.2058C51.138 37.5174 50.9568 37.802 50.7257 38.0435L38.0334 50.7358C37.7974 50.9737 37.5167 51.1625 37.2073 51.2914C36.898 51.4203 36.5662 51.4866 36.2311 51.4866C35.896 51.4866 35.5642 51.4203 35.2549 51.2914C34.9455 51.1625 34.6648 50.9737 34.4288 50.7358C34.1909 50.4998 34.002 50.219 33.8732 49.9097C33.7443 49.6004 33.6779 49.2686 33.6779 48.9335C33.6779 48.5984 33.7443 48.2666 33.8732 47.9572C34.002 47.6479 34.1909 47.3671 34.4288 47.1312L42.8057 38.7796H23.5388C22.8656 38.7796 22.2199 38.5122 21.7438 38.0361C21.2678 37.5601 21.0003 36.9144 21.0003 36.2412C21.0003 35.5679 21.2678 34.9222 21.7438 34.4462C22.2199 33.9701 22.8656 33.7027 23.5388 33.7027Z" fill="white"/>
</svg>
