<svg width="20" height="20" viewBox="0 0 20 20" fill="none" xmlns="http://www.w3.org/2000/svg">
<path d="M14.1663 1.66663H4.16634C3.94533 1.66663 3.73337 1.75442 3.57709 1.9107C3.42081 2.06698 3.33301 2.27895 3.33301 2.49996V15.8333C3.33301 16.0543 3.42081 16.2663 3.57709 16.4225C3.73337 16.5788 3.94533 16.6666 4.16634 16.6666H4.99967V17.5C4.99967 17.721 5.08747 17.9329 5.24375 18.0892C5.40003 18.2455 5.61199 18.3333 5.83301 18.3333C6.05402 18.3333 6.26598 18.2455 6.42226 18.0892C6.57854 17.9329 6.66634 17.721 6.66634 17.5V16.6666H14.1663C14.8294 16.6666 15.4653 16.4032 15.9341 15.9344C16.4029 15.4656 16.6663 14.8297 16.6663 14.1666V4.16663C16.6663 3.50358 16.4029 2.8677 15.9341 2.39886C15.4653 1.93002 14.8294 1.66663 14.1663 1.66663ZM11.6663 15H4.99967V3.33329H11.6663V15ZM14.9997 14.1666C14.9997 14.3876 14.9119 14.5996 14.7556 14.7559C14.5993 14.9122 14.3874 15 14.1663 15H13.333V3.33329H14.1663C14.3874 3.33329 14.5993 3.42109 14.7556 3.57737C14.9119 3.73365 14.9997 3.94561 14.9997 4.16663V14.1666Z" fill="#5C6066"/>
</svg>
