<svg width="36" height="36" viewBox="0 0 36 36" fill="none" xmlns="http://www.w3.org/2000/svg">
<rect x="0.375" y="0.375" width="35.25" height="35.25" rx="17.625" stroke="#0A0A0A" stroke-width="0.75"/>
<path d="M21.5 9.25H14.5C13.8038 9.25 13.1361 9.52656 12.6439 10.0188C12.1516 10.5111 11.875 11.1788 11.875 11.875V25.875C11.8744 26.0292 11.9145 26.1808 11.9914 26.3145C12.0682 26.4482 12.179 26.5592 12.3125 26.6363C12.4455 26.713 12.5964 26.7535 12.75 26.7535C12.9036 26.7535 13.0545 26.713 13.1875 26.6363L18 23.8538L22.8125 26.6363C22.9459 26.7118 23.0967 26.7511 23.25 26.75C23.4033 26.7511 23.5542 26.7118 23.6875 26.6363C23.821 26.5592 23.9318 26.4482 24.0087 26.3145C24.0855 26.1808 24.1256 26.0292 24.125 25.875V11.875C24.125 11.1788 23.8484 10.5111 23.3562 10.0188C22.8639 9.52656 22.1962 9.25 21.5 9.25ZM22.375 24.3613L18.4375 22.0863C18.3045 22.0095 18.1536 21.969 18 21.969C17.8464 21.969 17.6955 22.0095 17.5625 22.0863L13.625 24.3613V11.875C13.625 11.6429 13.7172 11.4204 13.8813 11.2563C14.0454 11.0922 14.2679 11 14.5 11H21.5C21.7321 11 21.9546 11.0922 22.1187 11.2563C22.2828 11.4204 22.375 11.6429 22.375 11.875V24.3613Z" fill="#0A0A0A"/>
</svg>
