<svg width="17" height="17" viewBox="0 0 17 17" fill="none" xmlns="http://www.w3.org/2000/svg">
<path d="M12.5 11.25V12.5C12.5 13 12.1667 13.3333 11.6667 13.3333C11.1667 13.3333 10.8333 13 10.8333 12.5V11.25H5.83333V12.5C5.83333 13 5.5 13.3333 5 13.3333C4.5 13.3333 4.16667 13 4.16667 12.5V11.25H2.5C1.91667 11.25 1.33333 11.0833 0.833333 10.8333V14.1667C0.833333 15.5833 1.91667 16.6667 3.33333 16.6667H13.3333C14.75 16.6667 15.8333 15.5833 15.8333 14.1667V10.8333C15.3333 11.0833 14.75 11.25 14.1667 11.25H12.5ZM15.8333 3.33333H12.5V2.5C12.5 1.08333 11.4167 0 10 0H6.66667C5.25 0 4.16667 1.08333 4.16667 2.5V3.33333H0.833333C0.333333 3.33333 0 3.66667 0 4.16667V7.5C0 8.91667 1.08333 10 2.5 10H14.1667C15.5833 10 16.6667 8.91667 16.6667 7.5V4.16667C16.6667 3.66667 16.3333 3.33333 15.8333 3.33333ZM10.8333 3.33333H5.83333V2.5C5.83333 2 6.16667 1.66667 6.66667 1.66667H10C10.5 1.66667 10.8333 2 10.8333 2.5V3.33333Z" fill="#5C6066"/>
</svg>
