<svg width="17" height="17" viewBox="0 0 17 17" fill="none" xmlns="http://www.w3.org/2000/svg">
<path d="M0.75 4.125C0.75 10.338 5.787 15.375 12 15.375H13.6875C14.1351 15.375 14.5643 15.1972 14.8807 14.8807C15.1972 14.5643 15.375 14.1351 15.375 13.6875V12.6585C15.375 12.2715 15.1118 11.934 14.736 11.8403L11.4188 11.0107C11.0888 10.9282 10.7423 11.052 10.539 11.3235L9.8115 12.2933C9.6 12.5753 9.23475 12.6997 8.904 12.5782C7.67616 12.1268 6.56111 11.4139 5.63609 10.4889C4.71106 9.56389 3.99816 8.44884 3.54675 7.221C3.42525 6.89025 3.54975 6.525 3.83175 6.3135L4.8015 5.586C5.07375 5.38275 5.19675 5.0355 5.11425 4.70625L4.28475 1.389C4.2391 1.20652 4.13379 1.04453 3.98554 0.928753C3.83729 0.812978 3.6546 0.750062 3.4665 0.75H2.4375C1.98995 0.75 1.56072 0.92779 1.24426 1.24426C0.92779 1.56072 0.75 1.98995 0.75 2.4375V4.125Z" stroke="white" stroke-width="1.5" stroke-linecap="round" stroke-linejoin="round"/>
</svg>
