<svg width="31" height="24" viewBox="0 0 31 24" fill="none" xmlns="http://www.w3.org/2000/svg">
<path d="M5.19905 0.9C4.04371 -0.3 2.31069 -0.3 1.15534 0.9C2.5824e-07 2.1 2.5824e-07 3.9 1.15534 5.1L7.50974 12L0.866509 18.9C0.288837 19.5 0 20.1 0 21C0 22.8 1.15534 24 2.88836 24C3.75487 24 4.33254 23.7 4.91021 23.1L13.5753 14.1C14.7306 12.9 14.7306 11.1 13.5753 9.9L5.19905 0.9ZM29.7501 9.9L21.085 0.9C19.9297 -0.3 18.1967 -0.3 17.0413 0.9C15.886 2.1 15.886 3.9 17.0413 5.1L23.6846 12L17.0413 18.9C16.4637 19.5 16.1748 20.1 16.1748 21C16.1748 22.8 17.3302 24 19.0632 24C19.9297 24 20.5074 23.7 21.085 23.1L29.7501 14.1C30.6166 12.9 30.6166 11.1 29.7501 9.9Z" fill="url(#paint0_linear_1_10943)"/>
<defs>
<linearGradient id="paint0_linear_1_10943" x1="10.1078" y1="29.8302" x2="-6.52785" y2="13.2658" gradientUnits="userSpaceOnUse">
<stop stop-color="#8CD9FF"/>
<stop offset="1" stop-color="white"/>
</linearGradient>
</defs>
</svg>
