<svg width="72" height="72" viewBox="0 0 72 72" fill="none" xmlns="http://www.w3.org/2000/svg">
<rect width="72" height="72" rx="36" transform="matrix(-1 0 0 1 72 0)" fill="white"/>
<path d="M23.32 33.472H42.587L34.21 25.1204C33.732 24.6424 33.4635 23.9941 33.4635 23.3181C33.4635 22.6421 33.732 21.9938 34.21 21.5158C34.688 21.0378 35.3364 20.7693 36.0124 20.7693C36.6884 20.7693 37.3367 21.0378 37.8147 21.5158L50.507 34.2081C50.7381 34.4496 50.9192 34.7342 51.04 35.0458C51.2939 35.6638 51.2939 36.357 51.04 36.9751C50.9192 37.2867 50.7381 37.5713 50.507 37.8127L37.8147 50.5051C37.5787 50.743 37.2979 50.9318 36.9886 51.0607C36.6793 51.1896 36.3475 51.2559 36.0124 51.2559C35.6772 51.2559 35.3455 51.1896 35.0361 51.0607C34.7268 50.9318 34.446 50.743 34.21 50.5051C33.9721 50.2691 33.7833 49.9883 33.6544 49.679C33.5255 49.3696 33.4592 49.0379 33.4592 48.7027C33.4592 48.3676 33.5255 48.0359 33.6544 47.7265C33.7833 47.4172 33.9721 47.1364 34.21 46.9004L42.587 38.5489H23.32C22.6468 38.5489 22.0011 38.2815 21.5251 37.8054C21.049 37.3294 20.7816 36.6837 20.7816 36.0104C20.7816 35.3372 21.049 34.6915 21.5251 34.2155C22.0011 33.7394 22.6468 33.472 23.32 33.472Z" fill="#4D0897"/>
</svg>
