<svg width="13" height="22" viewBox="0 0 13 22" fill="none" xmlns="http://www.w3.org/2000/svg">
<path d="M0.517881 9.78674L9.62291 0.486882C9.77246 0.332605 9.95038 0.210153 10.1464 0.126589C10.3424 0.0430237 10.5527 0 10.7651 0C10.9774 0 11.1877 0.0430237 11.3837 0.126589C11.5797 0.210153 11.7577 0.332605 11.9072 0.486882C12.2068 0.795279 12.375 1.21246 12.375 1.64731C12.375 2.08215 12.2068 2.49933 11.9072 2.80773L3.94433 11.0377L11.9072 19.1854C12.2068 19.4938 12.375 19.9109 12.375 20.3458C12.375 20.7806 12.2068 21.1978 11.9072 21.5062C11.7582 21.6617 11.5806 21.7855 11.3845 21.8702C11.1884 21.955 10.9779 21.9991 10.7651 22C10.5522 21.9991 10.3417 21.955 10.1456 21.8702C9.94957 21.7855 9.7719 21.6617 9.62291 21.5062L0.517881 12.2063C0.354594 12.0522 0.224278 11.8651 0.135147 11.6569C0.0460148 11.4487 0 11.2239 0 10.9965C0 10.7692 0.0460148 10.5444 0.135147 10.3362C0.224278 10.1279 0.354594 9.94087 0.517881 9.78674Z"/>
</svg>
