<svg width="13" height="13" viewBox="0 0 13 13" fill="none" xmlns="http://www.w3.org/2000/svg">
<path d="M12.9196 0.671667C12.8097 0.406955 12.5993 0.196598 12.3346 0.0866666C12.2044 0.0311555 12.0645 0.00171165 11.9229 0H1.08961C0.802297 0 0.526747 0.114137 0.323583 0.317301C0.120418 0.520466 0.00628153 0.796015 0.00628153 1.08333C0.00628153 1.37065 0.120418 1.6462 0.323583 1.84937C0.526747 2.05253 0.802297 2.16667 1.08961 2.16667H9.31211L0.320448 11.1475C0.218909 11.2482 0.138315 11.368 0.0833161 11.5C0.0283167 11.6321 0 11.7737 0 11.9167C0 12.0597 0.0283167 12.2013 0.0833161 12.3333C0.138315 12.4653 0.218909 12.5851 0.320448 12.6858C0.421158 12.7874 0.540976 12.868 0.67299 12.923C0.805004 12.978 0.946602 13.0063 1.08961 13.0063C1.23263 13.0063 1.37423 12.978 1.50624 12.923C1.63825 12.868 1.75807 12.7874 1.85878 12.6858L10.8396 3.69417V11.9167C10.8396 12.204 10.9537 12.4795 11.1569 12.6827C11.3601 12.8859 11.6356 13 11.9229 13C12.2103 13 12.4858 12.8859 12.689 12.6827C12.8921 12.4795 13.0063 12.204 13.0063 11.9167V1.08333C13.0046 0.941766 12.9751 0.801907 12.9196 0.671667Z" fill="white"/>
</svg>
