<svg width="17" height="13" viewBox="0 0 17 13" fill="none" xmlns="http://www.w3.org/2000/svg">
<path d="M15.375 2.4375V10.3125C15.375 10.7601 15.1972 11.1893 14.8807 11.5057C14.5643 11.8222 14.1351 12 13.6875 12H2.4375C1.98995 12 1.56072 11.8222 1.24426 11.5057C0.92779 11.1893 0.75 10.7601 0.75 10.3125V2.4375M15.375 2.4375C15.375 1.98995 15.1972 1.56073 14.8807 1.24426C14.5643 0.92779 14.1351 0.75 13.6875 0.75H2.4375C1.98995 0.75 1.56072 0.92779 1.24426 1.24426C0.92779 1.56073 0.75 1.98995 0.75 2.4375M15.375 2.4375V2.61975C15.375 2.90786 15.3013 3.19118 15.1608 3.44272C15.0203 3.69426 14.8178 3.90565 14.5725 4.05675L8.9475 7.518C8.68141 7.6819 8.37502 7.76869 8.0625 7.76869C7.74998 7.76869 7.44359 7.6819 7.1775 7.518L1.5525 4.0575C1.30719 3.9064 1.10465 3.69501 0.964177 3.44347C0.823701 3.19193 0.749968 2.90861 0.75 2.6205V2.4375" stroke="white" stroke-width="1.5" stroke-linecap="round" stroke-linejoin="round"/>
</svg>
