<svg width="62" height="62" viewBox="0 0 62 62" fill="none" xmlns="http://www.w3.org/2000/svg">
<path d="M3.36225 49.3222C0.57624 45.0001 0 39.5255 0 36.3539C0 23.5784 6.339 12.5318 20.2691 6L22.0953 9.55505C14.0254 12.9153 7.10806 21.178 7.10806 28.8623C7.10806 30.5912 7.30082 31.8411 7.68433 32.9916C9.60593 31.4556 12.1992 30.3984 14.9852 30.3984C21.8051 30.3984 27.5699 35.104 27.5699 42.9811C27.5699 50.284 21.8071 55.5658 14.9852 55.5658C9.2224 55.5658 5.76272 53.07 3.36225 49.3222ZM36.7903 49.3222C34.0043 45.0001 33.4281 39.5255 33.4281 36.3539C33.4281 23.5784 39.7691 12.5318 53.6971 6L55.5214 9.55505C47.4535 12.9153 40.5382 21.178 40.5382 28.8623C40.5382 30.5912 40.7289 31.8411 41.1144 32.9916C43.1314 31.4556 45.6293 30.3984 48.4153 30.3984C55.3306 30.3984 61 35.104 61 42.9811C61 50.284 55.3326 55.5658 48.4153 55.5658C42.7459 55.5658 39.1908 53.07 36.7903 49.3222Z" fill="url(#paint0_linear_1_5781)"/>
<defs>
<linearGradient id="paint0_linear_1_5781" x1="25.5" y1="23.5" x2="30.8241" y2="49.536" gradientUnits="userSpaceOnUse">
<stop stop-color="#3949E0"/>
<stop offset="1" stop-color="#AD73FF"/>
</linearGradient>
</defs>
</svg>
