<svg width="36" height="36" viewBox="0 0 36 36" fill="none" xmlns="http://www.w3.org/2000/svg">
<rect x="0.375" y="0.375" width="35.25" height="35.25" rx="17.625" stroke="#0A0A0A" stroke-width="0.75"/>
<path d="M23.2498 19.75C22.7329 19.7534 22.2231 19.8713 21.7571 20.0952C21.2911 20.3191 20.8805 20.6435 20.5548 21.045L16.0923 18.9887C16.3021 18.3463 16.3021 17.6537 16.0923 17.0112L20.5548 14.955C21.0812 15.5902 21.8151 16.019 22.627 16.1658C23.4388 16.3126 24.2764 16.1679 24.9919 15.7573C25.7074 15.3466 26.2549 14.6964 26.5377 13.9214C26.8205 13.1464 26.8204 12.2964 26.5375 11.5214C26.2545 10.7464 25.707 10.0963 24.9914 9.68579C24.2758 9.27526 23.4381 9.13071 22.6263 9.27765C21.8145 9.42459 21.0807 9.85357 20.5544 10.4889C20.0281 11.1242 19.7432 11.925 19.7498 12.75C19.7525 12.9584 19.773 13.1663 19.8111 13.3712L15.1911 15.4975C14.6985 15.0159 14.0748 14.6903 13.398 14.5616C12.7213 14.4329 12.0216 14.5068 11.3866 14.774C10.7517 15.0412 10.2097 15.4898 9.82855 16.0637C9.44743 16.6375 9.24414 17.3111 9.24414 18C9.24414 18.6889 9.44743 19.3624 9.82855 19.9363C10.2097 20.5102 10.7517 20.9588 11.3866 21.226C12.0216 21.4932 12.7213 21.5671 13.398 21.4384C14.0748 21.3097 14.6985 20.9841 15.1911 20.5025L19.8111 22.6287C19.773 22.8337 19.7525 23.0415 19.7498 23.25C19.7498 23.9422 19.9551 24.6189 20.3397 25.1945C20.7243 25.77 21.2709 26.2186 21.9104 26.4836C22.55 26.7485 23.2537 26.8178 23.9326 26.6827C24.6116 26.5477 25.2352 26.2143 25.7247 25.7248C26.2142 25.2354 26.5475 24.6117 26.6826 23.9328C26.8176 23.2539 26.7483 22.5501 26.4834 21.9106C26.2185 21.271 25.7699 20.7244 25.1943 20.3398C24.6187 19.9552 23.9421 19.75 23.2498 19.75ZM23.2498 11C23.5959 11 23.9343 11.1026 24.2221 11.2949C24.5099 11.4872 24.7342 11.7605 24.8666 12.0803C24.9991 12.4001 25.0337 12.7519 24.9662 13.0914C24.8987 13.4309 24.732 13.7427 24.4873 13.9874C24.2425 14.2322 23.9307 14.3988 23.5912 14.4664C23.2518 14.5339 22.8999 14.4992 22.5801 14.3668C22.2604 14.2343 21.987 14.01 21.7948 13.7222C21.6025 13.4344 21.4998 13.0961 21.4998 12.75C21.4998 12.2858 21.6842 11.8407 22.0124 11.5125C22.3406 11.1844 22.7857 11 23.2498 11ZM12.7498 19.75C12.4037 19.75 12.0654 19.6473 11.7776 19.455C11.4898 19.2628 11.2655 18.9894 11.133 18.6697C11.0006 18.3499 10.9659 17.998 11.0335 17.6586C11.101 17.3191 11.2676 17.0073 11.5124 16.7625C11.7571 16.5178 12.069 16.3511 12.4084 16.2836C12.7479 16.2161 13.0998 16.2507 13.4195 16.3832C13.7393 16.5156 14.0126 16.7399 14.2049 17.0277C14.3972 17.3155 14.4998 17.6539 14.4998 18C14.4998 18.4641 14.3155 18.9092 13.9873 19.2374C13.6591 19.5656 13.214 19.75 12.7498 19.75ZM23.2498 25C22.9037 25 22.5654 24.8973 22.2776 24.705C21.9898 24.5128 21.7655 24.2394 21.633 23.9197C21.5006 23.5999 21.4659 23.248 21.5335 22.9086C21.601 22.5691 21.7676 22.2573 22.0124 22.0125C22.2571 21.7678 22.569 21.6011 22.9084 21.5336C23.2479 21.4661 23.5998 21.5007 23.9195 21.6332C24.2393 21.7656 24.5126 21.9899 24.7049 22.2777C24.8972 22.5655 24.9998 22.9039 24.9998 23.25C24.9998 23.7141 24.8155 24.1592 24.4873 24.4874C24.1591 24.8156 23.714 25 23.2498 25Z" fill="#0A0A0A"/>
</svg>
