<svg width="83" height="50" viewBox="0 0 83 50" fill="none" xmlns="http://www.w3.org/2000/svg">
<path d="M21.0998 49.6438C17.3878 49.6438 14.2091 49.0465 11.5638 47.8518C8.91847 46.6145 6.7638 44.9505 5.0998 42.8598C3.47847 40.7691 2.26247 38.3585 1.4518 35.6278C0.683805 32.8545 0.299805 29.9318 0.299805 26.8598V23.2118C0.299805 18.9451 1.04647 15.0838 2.5398 11.6278C4.03314 8.17181 6.31581 5.4198 9.38781 3.3718C12.4598 1.3238 16.3638 0.299805 21.0998 0.299805C25.8358 0.299805 29.7185 1.3238 32.7478 3.3718C35.8198 5.4198 38.1025 8.17181 39.5958 11.6278C41.0891 15.0838 41.8358 18.9451 41.8358 23.2118V26.8598C41.8358 29.9318 41.4305 32.8545 40.6198 35.6278C39.8518 38.3585 38.6358 40.7691 36.9718 42.8598C35.3505 44.9505 33.2171 46.6145 30.5718 47.8518C27.9691 49.0465 24.8118 49.6438 21.0998 49.6438ZM21.0998 39.9798C24.5558 39.9798 27.1158 38.7851 28.7798 36.3958C30.4865 33.9638 31.3398 30.2091 31.3398 25.1318C31.3398 19.7558 30.4651 15.8945 28.7158 13.5478C27.0091 11.1585 24.4705 9.96381 21.0998 9.96381C17.6438 9.96381 15.0625 11.1585 13.3558 13.5478C11.6491 15.8945 10.7958 19.7131 10.7958 25.0038C10.7958 30.1238 11.6278 33.8998 13.2918 36.3318C14.9985 38.7638 17.6011 39.9798 21.0998 39.9798Z" fill="url(#paint0_linear_290_723)" fill-opacity="0.1"/>
<path d="M49.3043 48.4278V38.8278C49.3043 36.8225 49.6243 35.0731 50.2643 33.5798C50.947 32.0865 52.0136 30.7638 53.4643 29.6118C54.915 28.4171 56.835 27.3078 59.2243 26.2838L66.7763 23.0198C68.6963 22.2091 70.1043 21.2065 71.0003 20.0118C71.939 18.8171 72.4083 17.3025 72.4083 15.4678C72.4083 13.5905 71.8323 12.0545 70.6803 10.8598C69.5283 9.66514 67.843 9.06781 65.6243 9.06781C63.4056 9.06781 61.7203 9.68647 60.5683 10.9238C59.4163 12.1611 58.8403 13.8251 58.8403 15.9158H48.6643C48.6643 12.9718 49.3043 10.3265 50.5843 7.9798C51.8643 5.59047 53.763 3.71314 56.2803 2.34781C58.7976 0.982471 61.9123 0.299805 65.6243 0.299805C69.3363 0.299805 72.4296 0.961138 74.9043 2.28381C77.4216 3.60647 79.3203 5.37714 80.6003 7.59581C81.923 9.81447 82.5843 12.3105 82.5843 15.0838V15.8518C82.5843 19.4358 81.603 22.4011 79.6403 24.7478C77.6776 27.0518 74.6483 29.0998 70.5523 30.8918L63.0643 34.1558C61.7843 34.7105 60.867 35.2865 60.3123 35.8838C59.8003 36.4811 59.5443 37.2918 59.5443 38.3158V41.5158L57.0483 39.4038H82.6483V48.4278H49.3043Z" fill="url(#paint1_linear_290_723)" fill-opacity="0.1"/>
<path d="M21.0998 49.6438C17.3878 49.6438 14.2091 49.0465 11.5638 47.8518C8.91847 46.6145 6.7638 44.9505 5.0998 42.8598C3.47847 40.7691 2.26247 38.3585 1.4518 35.6278C0.683805 32.8545 0.299805 29.9318 0.299805 26.8598V23.2118C0.299805 18.9451 1.04647 15.0838 2.5398 11.6278C4.03314 8.17181 6.31581 5.4198 9.38781 3.3718C12.4598 1.3238 16.3638 0.299805 21.0998 0.299805C25.8358 0.299805 29.7185 1.3238 32.7478 3.3718C35.8198 5.4198 38.1025 8.17181 39.5958 11.6278C41.0891 15.0838 41.8358 18.9451 41.8358 23.2118V26.8598C41.8358 29.9318 41.4305 32.8545 40.6198 35.6278C39.8518 38.3585 38.6358 40.7691 36.9718 42.8598C35.3505 44.9505 33.2171 46.6145 30.5718 47.8518C27.9691 49.0465 24.8118 49.6438 21.0998 49.6438ZM21.0998 39.9798C24.5558 39.9798 27.1158 38.7851 28.7798 36.3958C30.4865 33.9638 31.3398 30.2091 31.3398 25.1318C31.3398 19.7558 30.4651 15.8945 28.7158 13.5478C27.0091 11.1585 24.4705 9.96381 21.0998 9.96381C17.6438 9.96381 15.0625 11.1585 13.3558 13.5478C11.6491 15.8945 10.7958 19.7131 10.7958 25.0038C10.7958 30.1238 11.6278 33.8998 13.2918 36.3318C14.9985 38.7638 17.6011 39.9798 21.0998 39.9798Z" stroke="#0A0A0A" stroke-width="0.6"/>
<path d="M49.3043 48.4278V38.8278C49.3043 36.8225 49.6243 35.0731 50.2643 33.5798C50.947 32.0865 52.0136 30.7638 53.4643 29.6118C54.915 28.4171 56.835 27.3078 59.2243 26.2838L66.7763 23.0198C68.6963 22.2091 70.1043 21.2065 71.0003 20.0118C71.939 18.8171 72.4083 17.3025 72.4083 15.4678C72.4083 13.5905 71.8323 12.0545 70.6803 10.8598C69.5283 9.66514 67.843 9.06781 65.6243 9.06781C63.4056 9.06781 61.7203 9.68647 60.5683 10.9238C59.4163 12.1611 58.8403 13.8251 58.8403 15.9158H48.6643C48.6643 12.9718 49.3043 10.3265 50.5843 7.9798C51.8643 5.59047 53.763 3.71314 56.2803 2.34781C58.7976 0.982471 61.9123 0.299805 65.6243 0.299805C69.3363 0.299805 72.4296 0.961138 74.9043 2.28381C77.4216 3.60647 79.3203 5.37714 80.6003 7.59581C81.923 9.81447 82.5843 12.3105 82.5843 15.0838V15.8518C82.5843 19.4358 81.603 22.4011 79.6403 24.7478C77.6776 27.0518 74.6483 29.0998 70.5523 30.8918L63.0643 34.1558C61.7843 34.7105 60.867 35.2865 60.3123 35.8838C59.8003 36.4811 59.5443 37.2918 59.5443 38.3158V41.5158L57.0483 39.4038H82.6483V48.4278H49.3043Z" stroke="#0A0A0A" stroke-width="0.6"/>
<defs>
<linearGradient id="paint0_linear_290_723" x1="40.9019" y1="1.42773" x2="40.9019" y2="52.4277" gradientUnits="userSpaceOnUse">
<stop stop-color="#AD73FF"/>
<stop offset="1" stop-color="#3949E0"/>
</linearGradient>
<linearGradient id="paint1_linear_290_723" x1="40.9019" y1="1.42773" x2="40.9019" y2="52.4277" gradientUnits="userSpaceOnUse">
<stop stop-color="#AD73FF"/>
<stop offset="1" stop-color="#3949E0"/>
</linearGradient>
</defs>
</svg>
