<svg width="84" height="50" viewBox="0 0 84 50" fill="none" xmlns="http://www.w3.org/2000/svg">
<path d="M21.0998 49.6438C17.3878 49.6438 14.2091 49.0465 11.5638 47.8518C8.91847 46.6145 6.7638 44.9505 5.0998 42.8598C3.47847 40.7691 2.26247 38.3585 1.4518 35.6278C0.683805 32.8545 0.299805 29.9318 0.299805 26.8598V23.2118C0.299805 18.9451 1.04647 15.0838 2.5398 11.6278C4.03314 8.17181 6.31581 5.4198 9.38781 3.3718C12.4598 1.3238 16.3638 0.299805 21.0998 0.299805C25.8358 0.299805 29.7185 1.3238 32.7478 3.3718C35.8198 5.4198 38.1025 8.17181 39.5958 11.6278C41.0891 15.0838 41.8358 18.9451 41.8358 23.2118V26.8598C41.8358 29.9318 41.4305 32.8545 40.6198 35.6278C39.8518 38.3585 38.6358 40.7691 36.9718 42.8598C35.3505 44.9505 33.2171 46.6145 30.5718 47.8518C27.9691 49.0465 24.8118 49.6438 21.0998 49.6438ZM21.0998 39.9798C24.5558 39.9798 27.1158 38.7851 28.7798 36.3958C30.4865 33.9638 31.3398 30.2091 31.3398 25.1318C31.3398 19.7558 30.4651 15.8945 28.7158 13.5478C27.0091 11.1585 24.4705 9.96381 21.0998 9.96381C17.6438 9.96381 15.0625 11.1585 13.3558 13.5478C11.6491 15.8945 10.7958 19.7131 10.7958 25.0038C10.7958 30.1238 11.6278 33.8998 13.2918 36.3318C14.9985 38.7638 17.6011 39.9798 21.0998 39.9798Z" fill="url(#paint0_linear_290_726)" fill-opacity="0.1"/>
<path d="M65.3043 49.6438C61.6776 49.6438 58.5203 48.9825 55.8323 47.6598C53.187 46.2945 51.1603 44.4598 49.7523 42.1558C48.3443 39.8518 47.6403 37.2491 47.6403 34.3478H57.7523C57.7523 36.3105 58.4136 37.9105 59.7363 39.1478C61.059 40.3425 62.915 40.9398 65.3043 40.9398C66.883 40.9398 68.227 40.6411 69.3363 40.0438C70.4456 39.4465 71.299 38.6358 71.8963 37.6118C72.4936 36.5451 72.7923 35.3505 72.7923 34.0278C72.7923 31.9798 72.131 30.2945 70.8083 28.9718C69.5283 27.6491 67.6936 26.9878 65.3043 26.9878C64.0243 26.9878 62.8936 27.1798 61.9123 27.5638C60.9736 27.9478 60.163 28.4171 59.4803 28.9718L54.7443 20.9718L68.8883 11.7558L68.3123 10.6678H49.5603V1.70781H81.0483V11.4358L64.7283 21.8038L59.6083 20.3958C60.4616 20.1398 61.3576 19.9478 62.2963 19.8198C63.2776 19.6491 64.323 19.5638 65.4323 19.5638C69.059 19.5638 72.1736 20.1611 74.7763 21.3558C77.379 22.5505 79.3843 24.2358 80.7923 26.4118C82.243 28.5451 82.9683 31.0411 82.9683 33.8998V34.6678C82.9683 37.5265 82.243 40.0865 80.7923 42.3478C79.3843 44.6091 77.3576 46.4011 74.7123 47.7238C72.1096 49.0038 68.9736 49.6438 65.3043 49.6438Z" fill="url(#paint1_linear_290_726)" fill-opacity="0.1"/>
<path d="M21.0998 49.6438C17.3878 49.6438 14.2091 49.0465 11.5638 47.8518C8.91847 46.6145 6.7638 44.9505 5.0998 42.8598C3.47847 40.7691 2.26247 38.3585 1.4518 35.6278C0.683805 32.8545 0.299805 29.9318 0.299805 26.8598V23.2118C0.299805 18.9451 1.04647 15.0838 2.5398 11.6278C4.03314 8.17181 6.31581 5.4198 9.38781 3.3718C12.4598 1.3238 16.3638 0.299805 21.0998 0.299805C25.8358 0.299805 29.7185 1.3238 32.7478 3.3718C35.8198 5.4198 38.1025 8.17181 39.5958 11.6278C41.0891 15.0838 41.8358 18.9451 41.8358 23.2118V26.8598C41.8358 29.9318 41.4305 32.8545 40.6198 35.6278C39.8518 38.3585 38.6358 40.7691 36.9718 42.8598C35.3505 44.9505 33.2171 46.6145 30.5718 47.8518C27.9691 49.0465 24.8118 49.6438 21.0998 49.6438ZM21.0998 39.9798C24.5558 39.9798 27.1158 38.7851 28.7798 36.3958C30.4865 33.9638 31.3398 30.2091 31.3398 25.1318C31.3398 19.7558 30.4651 15.8945 28.7158 13.5478C27.0091 11.1585 24.4705 9.96381 21.0998 9.96381C17.6438 9.96381 15.0625 11.1585 13.3558 13.5478C11.6491 15.8945 10.7958 19.7131 10.7958 25.0038C10.7958 30.1238 11.6278 33.8998 13.2918 36.3318C14.9985 38.7638 17.6011 39.9798 21.0998 39.9798Z" stroke="#0A0A0A" stroke-width="0.6"/>
<path d="M65.3043 49.6438C61.6776 49.6438 58.5203 48.9825 55.8323 47.6598C53.187 46.2945 51.1603 44.4598 49.7523 42.1558C48.3443 39.8518 47.6403 37.2491 47.6403 34.3478H57.7523C57.7523 36.3105 58.4136 37.9105 59.7363 39.1478C61.059 40.3425 62.915 40.9398 65.3043 40.9398C66.883 40.9398 68.227 40.6411 69.3363 40.0438C70.4456 39.4465 71.299 38.6358 71.8963 37.6118C72.4936 36.5451 72.7923 35.3505 72.7923 34.0278C72.7923 31.9798 72.131 30.2945 70.8083 28.9718C69.5283 27.6491 67.6936 26.9878 65.3043 26.9878C64.0243 26.9878 62.8936 27.1798 61.9123 27.5638C60.9736 27.9478 60.163 28.4171 59.4803 28.9718L54.7443 20.9718L68.8883 11.7558L68.3123 10.6678H49.5603V1.70781H81.0483V11.4358L64.7283 21.8038L59.6083 20.3958C60.4616 20.1398 61.3576 19.9478 62.2963 19.8198C63.2776 19.6491 64.323 19.5638 65.4323 19.5638C69.059 19.5638 72.1736 20.1611 74.7763 21.3558C77.379 22.5505 79.3843 24.2358 80.7923 26.4118C82.243 28.5451 82.9683 31.0411 82.9683 33.8998V34.6678C82.9683 37.5265 82.243 40.0865 80.7923 42.3478C79.3843 44.6091 77.3576 46.4011 74.7123 47.7238C72.1096 49.0038 68.9736 49.6438 65.3043 49.6438Z" stroke="#0A0A0A" stroke-width="0.6"/>
<defs>
<linearGradient id="paint0_linear_290_726" x1="40.9019" y1="1.42773" x2="40.9019" y2="52.4277" gradientUnits="userSpaceOnUse">
<stop stop-color="#AD73FF"/>
<stop offset="1" stop-color="#3949E0"/>
</linearGradient>
<linearGradient id="paint1_linear_290_726" x1="40.9019" y1="1.42773" x2="40.9019" y2="52.4277" gradientUnits="userSpaceOnUse">
<stop stop-color="#AD73FF"/>
<stop offset="1" stop-color="#3949E0"/>
</linearGradient>
</defs>
</svg>
