<svg width="88" height="50" viewBox="0 0 88 50" fill="none" xmlns="http://www.w3.org/2000/svg">
<path d="M21.1 49.6985C17.3881 49.6985 14.2094 49.1012 11.564 47.9065C8.91872 46.6692 6.76405 45.0052 5.10005 42.9145C3.47872 40.8238 2.26272 38.4132 1.45205 35.6825C0.684049 32.9092 0.300049 29.9865 0.300049 26.9145V23.2665C0.300049 18.9998 1.04672 15.1385 2.54005 11.6825C4.03338 8.22649 6.31605 5.47449 9.38805 3.42649C12.4601 1.37849 16.364 0.354492 21.1 0.354492C25.8361 0.354492 29.7187 1.37849 32.7481 3.42649C35.8201 5.47449 38.1027 8.22649 39.5961 11.6825C41.0894 15.1385 41.8361 18.9998 41.8361 23.2665V26.9145C41.8361 29.9865 41.4307 32.9092 40.6201 35.6825C39.8521 38.4132 38.6361 40.8238 36.9721 42.9145C35.3507 45.0052 33.2174 46.6692 30.5721 47.9065C27.9694 49.1012 24.812 49.6985 21.1 49.6985ZM21.1 40.0345C24.556 40.0345 27.1161 38.8398 28.7801 36.4505C30.4867 34.0185 31.3401 30.2638 31.3401 25.1865C31.3401 19.8105 30.4654 15.9492 28.7161 13.6025C27.0094 11.2132 24.4707 10.0185 21.1 10.0185C17.6441 10.0185 15.0627 11.2132 13.356 13.6025C11.6494 15.9492 10.796 19.7678 10.796 25.0585C10.796 30.1785 11.628 33.9545 13.292 36.3865C14.9987 38.8185 17.6014 40.0345 21.1 40.0345Z" fill="url(#paint0_linear_290_738)" fill-opacity="0.1"/>
<path d="M47.5765 39.5225V28.5785L65.3046 0.418491L73.4325 5.73049L58.2645 29.8585L59.1605 31.2025H87.1285V39.5225H47.5765ZM72.0885 48.4825V14.8185H81.7525V48.4825H72.0885Z" fill="url(#paint1_linear_290_738)" fill-opacity="0.1"/>
<path d="M21.1 49.6985C17.3881 49.6985 14.2094 49.1012 11.564 47.9065C8.91872 46.6692 6.76405 45.0052 5.10005 42.9145C3.47872 40.8238 2.26272 38.4132 1.45205 35.6825C0.684049 32.9092 0.300049 29.9865 0.300049 26.9145V23.2665C0.300049 18.9998 1.04672 15.1385 2.54005 11.6825C4.03338 8.22649 6.31605 5.47449 9.38805 3.42649C12.4601 1.37849 16.364 0.354492 21.1 0.354492C25.8361 0.354492 29.7187 1.37849 32.7481 3.42649C35.8201 5.47449 38.1027 8.22649 39.5961 11.6825C41.0894 15.1385 41.8361 18.9998 41.8361 23.2665V26.9145C41.8361 29.9865 41.4307 32.9092 40.6201 35.6825C39.8521 38.4132 38.6361 40.8238 36.9721 42.9145C35.3507 45.0052 33.2174 46.6692 30.5721 47.9065C27.9694 49.1012 24.812 49.6985 21.1 49.6985ZM21.1 40.0345C24.556 40.0345 27.1161 38.8398 28.7801 36.4505C30.4867 34.0185 31.3401 30.2638 31.3401 25.1865C31.3401 19.8105 30.4654 15.9492 28.7161 13.6025C27.0094 11.2132 24.4707 10.0185 21.1 10.0185C17.6441 10.0185 15.0627 11.2132 13.356 13.6025C11.6494 15.9492 10.796 19.7678 10.796 25.0585C10.796 30.1785 11.628 33.9545 13.292 36.3865C14.9987 38.8185 17.6014 40.0345 21.1 40.0345Z" stroke="#0A0A0A" stroke-width="0.6"/>
<path d="M47.5765 39.5225V28.5785L65.3046 0.418491L73.4325 5.73049L58.2645 29.8585L59.1605 31.2025H87.1285V39.5225H47.5765ZM72.0885 48.4825V14.8185H81.7525V48.4825H72.0885Z" stroke="#0A0A0A" stroke-width="0.6"/>
<defs>
<linearGradient id="paint0_linear_290_738" x1="42.4646" y1="1.48242" x2="42.4646" y2="52.4824" gradientUnits="userSpaceOnUse">
<stop stop-color="#AD73FF"/>
<stop offset="1" stop-color="#3949E0"/>
</linearGradient>
<linearGradient id="paint1_linear_290_738" x1="42.4646" y1="1.48242" x2="42.4646" y2="52.4824" gradientUnits="userSpaceOnUse">
<stop stop-color="#AD73FF"/>
<stop offset="1" stop-color="#3949E0"/>
</linearGradient>
</defs>
</svg>
