<svg width="68" height="50" viewBox="0 0 68 50" fill="none" xmlns="http://www.w3.org/2000/svg">
<path d="M21.0998 49.6438C17.3878 49.6438 14.2091 49.0465 11.5638 47.8518C8.91847 46.6145 6.7638 44.9505 5.0998 42.8598C3.47847 40.7691 2.26247 38.3585 1.4518 35.6278C0.683805 32.8545 0.299805 29.9318 0.299805 26.8598V23.2118C0.299805 18.9451 1.04647 15.0838 2.5398 11.6278C4.03314 8.17181 6.31581 5.4198 9.38781 3.3718C12.4598 1.3238 16.3638 0.299805 21.0998 0.299805C25.8358 0.299805 29.7185 1.3238 32.7478 3.3718C35.8198 5.4198 38.1025 8.17181 39.5958 11.6278C41.0891 15.0838 41.8358 18.9451 41.8358 23.2118V26.8598C41.8358 29.9318 41.4305 32.8545 40.6198 35.6278C39.8518 38.3585 38.6358 40.7691 36.9718 42.8598C35.3505 44.9505 33.2171 46.6145 30.5718 47.8518C27.9691 49.0465 24.8118 49.6438 21.0998 49.6438ZM21.0998 39.9798C24.5558 39.9798 27.1158 38.7851 28.7798 36.3958C30.4865 33.9638 31.3398 30.2091 31.3398 25.1318C31.3398 19.7558 30.4651 15.8945 28.7158 13.5478C27.0091 11.1585 24.4705 9.96381 21.0998 9.96381C17.6438 9.96381 15.0625 11.1585 13.3558 13.5478C11.6491 15.8945 10.7958 19.7131 10.7958 25.0038C10.7958 30.1238 11.6278 33.8998 13.2918 36.3318C14.9985 38.7638 17.6011 39.9798 21.0998 39.9798Z" fill="url(#paint0_linear_290_715)" fill-opacity="0.1"/>
<path d="M56.7283 48.4278V8.6198L59.5443 10.7958H47.5763V1.70781H67.1603V48.4278H56.7283Z" fill="url(#paint1_linear_290_715)" fill-opacity="0.1"/>
<path d="M21.0998 49.6438C17.3878 49.6438 14.2091 49.0465 11.5638 47.8518C8.91847 46.6145 6.7638 44.9505 5.0998 42.8598C3.47847 40.7691 2.26247 38.3585 1.4518 35.6278C0.683805 32.8545 0.299805 29.9318 0.299805 26.8598V23.2118C0.299805 18.9451 1.04647 15.0838 2.5398 11.6278C4.03314 8.17181 6.31581 5.4198 9.38781 3.3718C12.4598 1.3238 16.3638 0.299805 21.0998 0.299805C25.8358 0.299805 29.7185 1.3238 32.7478 3.3718C35.8198 5.4198 38.1025 8.17181 39.5958 11.6278C41.0891 15.0838 41.8358 18.9451 41.8358 23.2118V26.8598C41.8358 29.9318 41.4305 32.8545 40.6198 35.6278C39.8518 38.3585 38.6358 40.7691 36.9718 42.8598C35.3505 44.9505 33.2171 46.6145 30.5718 47.8518C27.9691 49.0465 24.8118 49.6438 21.0998 49.6438ZM21.0998 39.9798C24.5558 39.9798 27.1158 38.7851 28.7798 36.3958C30.4865 33.9638 31.3398 30.2091 31.3398 25.1318C31.3398 19.7558 30.4651 15.8945 28.7158 13.5478C27.0091 11.1585 24.4705 9.96381 21.0998 9.96381C17.6438 9.96381 15.0625 11.1585 13.3558 13.5478C11.6491 15.8945 10.7958 19.7131 10.7958 25.0038C10.7958 30.1238 11.6278 33.8998 13.2918 36.3318C14.9985 38.7638 17.6011 39.9798 21.0998 39.9798Z" stroke="#0A0A0A" stroke-width="0.6"/>
<path d="M56.7283 48.4278V8.6198L59.5443 10.7958H47.5763V1.70781H67.1603V48.4278H56.7283Z" stroke="#0A0A0A" stroke-width="0.6"/>
<defs>
<linearGradient id="paint0_linear_290_715" x1="34.3394" y1="1.42773" x2="34.3394" y2="52.4277" gradientUnits="userSpaceOnUse">
<stop stop-color="#AD73FF"/>
<stop offset="1" stop-color="#3949E0"/>
</linearGradient>
<linearGradient id="paint1_linear_290_715" x1="34.3394" y1="1.42773" x2="34.3394" y2="52.4277" gradientUnits="userSpaceOnUse">
<stop stop-color="#AD73FF"/>
<stop offset="1" stop-color="#3949E0"/>
</linearGradient>
</defs>
</svg>
