<svg width="85" height="50" viewBox="0 0 85 50" fill="none" xmlns="http://www.w3.org/2000/svg">
<path d="M21.1 49.6438C17.3881 49.6438 14.2094 49.0465 11.564 47.8518C8.91872 46.6145 6.76405 44.9505 5.10005 42.8598C3.47872 40.7691 2.26272 38.3585 1.45205 35.6278C0.684049 32.8545 0.300049 29.9318 0.300049 26.8598V23.2118C0.300049 18.9451 1.04672 15.0838 2.54005 11.6278C4.03338 8.17181 6.31605 5.4198 9.38805 3.3718C12.4601 1.3238 16.364 0.299805 21.1 0.299805C25.8361 0.299805 29.7187 1.3238 32.7481 3.3718C35.8201 5.4198 38.1027 8.17181 39.5961 11.6278C41.0894 15.0838 41.8361 18.9451 41.8361 23.2118V26.8598C41.8361 29.9318 41.4307 32.8545 40.6201 35.6278C39.8521 38.3585 38.6361 40.7691 36.9721 42.8598C35.3507 44.9505 33.2174 46.6145 30.5721 47.8518C27.9694 49.0465 24.812 49.6438 21.1 49.6438ZM21.1 39.9798C24.556 39.9798 27.1161 38.7851 28.7801 36.3958C30.4867 33.9638 31.3401 30.2091 31.3401 25.1318C31.3401 19.7558 30.4654 15.8945 28.7161 13.5478C27.0094 11.1585 24.4707 9.96381 21.1 9.96381C17.6441 9.96381 15.0627 11.1585 13.356 13.5478C11.6494 15.8945 10.796 19.7131 10.796 25.0038C10.796 30.1238 11.628 33.8998 13.292 36.3318C14.9987 38.7638 17.6014 39.9798 21.1 39.9798Z" fill="url(#paint0_linear_290_742)" fill-opacity="0.1"/>
<path d="M66.3286 49.6438C62.6166 49.6438 59.4165 48.9398 56.7285 47.5318C54.0406 46.0811 51.9712 44.1398 50.5205 41.7078C49.1125 39.2758 48.4086 36.5878 48.4086 33.6438H58.5205C58.5205 35.0945 58.8405 36.3745 59.4805 37.4838C60.1632 38.5505 61.1019 39.4038 62.2966 40.0438C63.4912 40.6411 64.8565 40.9398 66.3925 40.9398C68.0992 40.9398 69.5285 40.5985 70.6805 39.9158C71.8752 39.1905 72.7925 38.2305 73.4325 37.0358C74.0725 35.7985 74.3925 34.4118 74.3925 32.8758C74.3925 31.2971 74.0725 29.9105 73.4325 28.7158C72.8352 27.4785 71.9392 26.4971 70.7446 25.7718C69.5926 25.0465 68.1846 24.6838 66.5206 24.6838C64.9846 24.6838 63.5979 25.0038 62.3605 25.6438C61.1232 26.2838 60.2059 27.0945 59.6086 28.0758H49.7525L52.1205 1.70781H80.4725V10.6678H56.2805L60.3125 7.9798L58.9045 23.1478L56.4725 22.5078C57.7525 20.9718 59.2886 19.6918 61.0806 18.6678C62.9152 17.6011 65.3046 17.0678 68.2486 17.0678C71.6619 17.0678 74.5632 17.7718 76.9526 19.1798C79.3846 20.5451 81.2406 22.4011 82.5206 24.7478C83.8432 27.0518 84.5045 29.6331 84.5045 32.4918V33.3238C84.5045 36.1825 83.8005 38.8491 82.3925 41.3238C80.9846 43.7985 78.9152 45.8038 76.1845 47.3398C73.4966 48.8758 70.2112 49.6438 66.3286 49.6438Z" fill="url(#paint1_linear_290_742)" fill-opacity="0.1"/>
<path d="M21.1 49.6438C17.3881 49.6438 14.2094 49.0465 11.564 47.8518C8.91872 46.6145 6.76405 44.9505 5.10005 42.8598C3.47872 40.7691 2.26272 38.3585 1.45205 35.6278C0.684049 32.8545 0.300049 29.9318 0.300049 26.8598V23.2118C0.300049 18.9451 1.04672 15.0838 2.54005 11.6278C4.03338 8.17181 6.31605 5.4198 9.38805 3.3718C12.4601 1.3238 16.364 0.299805 21.1 0.299805C25.8361 0.299805 29.7187 1.3238 32.7481 3.3718C35.8201 5.4198 38.1027 8.17181 39.5961 11.6278C41.0894 15.0838 41.8361 18.9451 41.8361 23.2118V26.8598C41.8361 29.9318 41.4307 32.8545 40.6201 35.6278C39.8521 38.3585 38.6361 40.7691 36.9721 42.8598C35.3507 44.9505 33.2174 46.6145 30.5721 47.8518C27.9694 49.0465 24.812 49.6438 21.1 49.6438ZM21.1 39.9798C24.556 39.9798 27.1161 38.7851 28.7801 36.3958C30.4867 33.9638 31.3401 30.2091 31.3401 25.1318C31.3401 19.7558 30.4654 15.8945 28.7161 13.5478C27.0094 11.1585 24.4707 9.96381 21.1 9.96381C17.6441 9.96381 15.0627 11.1585 13.356 13.5478C11.6494 15.8945 10.796 19.7131 10.796 25.0038C10.796 30.1238 11.628 33.8998 13.292 36.3318C14.9987 38.7638 17.6014 39.9798 21.1 39.9798Z" stroke="#0A0A0A" stroke-width="0.6"/>
<path d="M66.3286 49.6438C62.6166 49.6438 59.4165 48.9398 56.7285 47.5318C54.0406 46.0811 51.9712 44.1398 50.5205 41.7078C49.1125 39.2758 48.4086 36.5878 48.4086 33.6438H58.5205C58.5205 35.0945 58.8405 36.3745 59.4805 37.4838C60.1632 38.5505 61.1019 39.4038 62.2966 40.0438C63.4912 40.6411 64.8565 40.9398 66.3925 40.9398C68.0992 40.9398 69.5285 40.5985 70.6805 39.9158C71.8752 39.1905 72.7925 38.2305 73.4325 37.0358C74.0725 35.7985 74.3925 34.4118 74.3925 32.8758C74.3925 31.2971 74.0725 29.9105 73.4325 28.7158C72.8352 27.4785 71.9392 26.4971 70.7446 25.7718C69.5926 25.0465 68.1846 24.6838 66.5206 24.6838C64.9846 24.6838 63.5979 25.0038 62.3605 25.6438C61.1232 26.2838 60.2059 27.0945 59.6086 28.0758H49.7525L52.1205 1.70781H80.4725V10.6678H56.2805L60.3125 7.9798L58.9045 23.1478L56.4725 22.5078C57.7525 20.9718 59.2886 19.6918 61.0806 18.6678C62.9152 17.6011 65.3046 17.0678 68.2486 17.0678C71.6619 17.0678 74.5632 17.7718 76.9526 19.1798C79.3846 20.5451 81.2406 22.4011 82.5206 24.7478C83.8432 27.0518 84.5045 29.6331 84.5045 32.4918V33.3238C84.5045 36.1825 83.8005 38.8491 82.3925 41.3238C80.9846 43.7985 78.9152 45.8038 76.1845 47.3398C73.4966 48.8758 70.2112 49.6438 66.3286 49.6438Z" stroke="#0A0A0A" stroke-width="0.6"/>
<defs>
<linearGradient id="paint0_linear_290_742" x1="41.6521" y1="1.42773" x2="41.6521" y2="52.4277" gradientUnits="userSpaceOnUse">
<stop stop-color="#AD73FF"/>
<stop offset="1" stop-color="#3949E0"/>
</linearGradient>
<linearGradient id="paint1_linear_290_742" x1="41.6521" y1="1.42773" x2="41.6521" y2="52.4277" gradientUnits="userSpaceOnUse">
<stop stop-color="#AD73FF"/>
<stop offset="1" stop-color="#3949E0"/>
</linearGradient>
</defs>
</svg>
