<svg width="88" height="51" viewBox="0 0 88 51" fill="none" xmlns="http://www.w3.org/2000/svg">
<path d="M21.1 49.6438C17.3881 49.6438 14.2094 49.0465 11.564 47.8518C8.91872 46.6145 6.76405 44.9505 5.10005 42.8598C3.47872 40.7691 2.26272 38.3585 1.45205 35.6278C0.684049 32.8545 0.300049 29.9318 0.300049 26.8598V23.2118C0.300049 18.9451 1.04672 15.0838 2.54005 11.6278C4.03338 8.17181 6.31605 5.4198 9.38805 3.3718C12.4601 1.3238 16.364 0.299805 21.1 0.299805C25.8361 0.299805 29.7187 1.3238 32.7481 3.3718C35.8201 5.4198 38.1027 8.17181 39.5961 11.6278C41.0894 15.0838 41.8361 18.9451 41.8361 23.2118V26.8598C41.8361 29.9318 41.4307 32.8545 40.6201 35.6278C39.8521 38.3585 38.6361 40.7691 36.9721 42.8598C35.3507 44.9505 33.2174 46.6145 30.5721 47.8518C27.9694 49.0465 24.812 49.6438 21.1 49.6438ZM21.1 39.9798C24.556 39.9798 27.1161 38.7851 28.7801 36.3958C30.4867 33.9638 31.3401 30.2091 31.3401 25.1318C31.3401 19.7558 30.4654 15.8945 28.7161 13.5478C27.0094 11.1585 24.4707 9.96381 21.1 9.96381C17.6441 9.96381 15.0627 11.1585 13.356 13.5478C11.6494 15.8945 10.796 19.7131 10.796 25.0038C10.796 30.1238 11.628 33.8998 13.292 36.3318C14.9987 38.7638 17.6014 39.9798 21.1 39.9798Z" fill="url(#paint0_linear_290_744)" fill-opacity="0.1"/>
<path d="M68.4406 49.7718C64.9846 49.7718 62.0192 49.2171 59.5445 48.1078C57.0699 46.9558 55.0432 45.3558 53.4646 43.3078C51.9286 41.2171 50.7766 38.8278 50.0085 36.1398C49.2832 33.4518 48.9205 30.5718 48.9205 27.4998V24.8118C48.9205 17.0465 50.9045 11.2011 54.8725 7.27581C58.8405 3.3078 64.6859 1.3238 72.4086 1.3238C73.9872 1.3238 75.5446 1.36647 77.0806 1.45181C78.6166 1.53714 80.1099 1.66514 81.5605 1.8358V10.6038C80.1525 10.4758 78.6379 10.3691 77.0165 10.2838C75.3952 10.1558 73.7312 10.0918 72.0246 10.0918C68.6112 10.0918 65.9232 10.6678 63.9605 11.8198C61.9979 12.9291 60.6112 14.6145 59.8005 16.8758C58.9899 19.1371 58.5845 21.9318 58.5845 25.2598V30.1238L56.2805 31.6598C56.3232 28.4598 56.9632 25.7931 58.2006 23.6598C59.4805 21.4838 61.2299 19.8625 63.4486 18.7958C65.6672 17.7291 68.2272 17.1958 71.1285 17.1958C74.4139 17.1958 77.2512 17.8571 79.6405 19.1798C82.0299 20.4598 83.8645 22.2731 85.1445 24.6198C86.4245 26.9665 87.0646 29.7398 87.0646 32.9398C87.0646 36.3105 86.2966 39.2758 84.7606 41.8358C83.2245 44.3531 81.0486 46.3158 78.2326 47.7238C75.4592 49.0891 72.1952 49.7718 68.4406 49.7718ZM68.1206 41.0678C69.9979 41.0678 71.5766 40.7265 72.8566 40.0438C74.1792 39.3611 75.1819 38.4438 75.8645 37.2918C76.5899 36.0971 76.9526 34.7105 76.9526 33.1318C76.9526 31.5105 76.6112 30.1238 75.9286 28.9718C75.2459 27.7771 74.2645 26.8598 72.9846 26.2198C71.7472 25.5371 70.2112 25.1958 68.3765 25.1958C66.7125 25.1958 65.1766 25.4945 63.7686 26.0918C62.4032 26.6465 61.3152 27.5211 60.5046 28.7158C59.6939 29.8678 59.2885 31.3398 59.2885 33.1318C59.2885 34.6678 59.6086 36.0331 60.2486 37.2278C60.9312 38.4225 61.9339 39.3611 63.2565 40.0438C64.5792 40.7265 66.2006 41.0678 68.1206 41.0678Z" fill="url(#paint1_linear_290_744)" fill-opacity="0.1"/>
<path d="M21.1 49.6438C17.3881 49.6438 14.2094 49.0465 11.564 47.8518C8.91872 46.6145 6.76405 44.9505 5.10005 42.8598C3.47872 40.7691 2.26272 38.3585 1.45205 35.6278C0.684049 32.8545 0.300049 29.9318 0.300049 26.8598V23.2118C0.300049 18.9451 1.04672 15.0838 2.54005 11.6278C4.03338 8.17181 6.31605 5.4198 9.38805 3.3718C12.4601 1.3238 16.364 0.299805 21.1 0.299805C25.8361 0.299805 29.7187 1.3238 32.7481 3.3718C35.8201 5.4198 38.1027 8.17181 39.5961 11.6278C41.0894 15.0838 41.8361 18.9451 41.8361 23.2118V26.8598C41.8361 29.9318 41.4307 32.8545 40.6201 35.6278C39.8521 38.3585 38.6361 40.7691 36.9721 42.8598C35.3507 44.9505 33.2174 46.6145 30.5721 47.8518C27.9694 49.0465 24.812 49.6438 21.1 49.6438ZM21.1 39.9798C24.556 39.9798 27.1161 38.7851 28.7801 36.3958C30.4867 33.9638 31.3401 30.2091 31.3401 25.1318C31.3401 19.7558 30.4654 15.8945 28.7161 13.5478C27.0094 11.1585 24.4707 9.96381 21.1 9.96381C17.6441 9.96381 15.0627 11.1585 13.356 13.5478C11.6494 15.8945 10.796 19.7131 10.796 25.0038C10.796 30.1238 11.628 33.8998 13.292 36.3318C14.9987 38.7638 17.6014 39.9798 21.1 39.9798Z" stroke="#0A0A0A" stroke-width="0.6"/>
<path d="M68.4406 49.7718C64.9846 49.7718 62.0192 49.2171 59.5445 48.1078C57.0699 46.9558 55.0432 45.3558 53.4646 43.3078C51.9286 41.2171 50.7766 38.8278 50.0085 36.1398C49.2832 33.4518 48.9205 30.5718 48.9205 27.4998V24.8118C48.9205 17.0465 50.9045 11.2011 54.8725 7.27581C58.8405 3.3078 64.6859 1.3238 72.4086 1.3238C73.9872 1.3238 75.5446 1.36647 77.0806 1.45181C78.6166 1.53714 80.1099 1.66514 81.5605 1.8358V10.6038C80.1525 10.4758 78.6379 10.3691 77.0165 10.2838C75.3952 10.1558 73.7312 10.0918 72.0246 10.0918C68.6112 10.0918 65.9232 10.6678 63.9605 11.8198C61.9979 12.9291 60.6112 14.6145 59.8005 16.8758C58.9899 19.1371 58.5845 21.9318 58.5845 25.2598V30.1238L56.2805 31.6598C56.3232 28.4598 56.9632 25.7931 58.2006 23.6598C59.4805 21.4838 61.2299 19.8625 63.4486 18.7958C65.6672 17.7291 68.2272 17.1958 71.1285 17.1958C74.4139 17.1958 77.2512 17.8571 79.6405 19.1798C82.0299 20.4598 83.8645 22.2731 85.1445 24.6198C86.4245 26.9665 87.0646 29.7398 87.0646 32.9398C87.0646 36.3105 86.2966 39.2758 84.7606 41.8358C83.2245 44.3531 81.0486 46.3158 78.2326 47.7238C75.4592 49.0891 72.1952 49.7718 68.4406 49.7718ZM68.1206 41.0678C69.9979 41.0678 71.5766 40.7265 72.8566 40.0438C74.1792 39.3611 75.1819 38.4438 75.8645 37.2918C76.5899 36.0971 76.9526 34.7105 76.9526 33.1318C76.9526 31.5105 76.6112 30.1238 75.9286 28.9718C75.2459 27.7771 74.2645 26.8598 72.9846 26.2198C71.7472 25.5371 70.2112 25.1958 68.3765 25.1958C66.7125 25.1958 65.1766 25.4945 63.7686 26.0918C62.4032 26.6465 61.3152 27.5211 60.5046 28.7158C59.6939 29.8678 59.2885 31.3398 59.2885 33.1318C59.2885 34.6678 59.6086 36.0331 60.2486 37.2278C60.9312 38.4225 61.9339 39.3611 63.2565 40.0438C64.5792 40.7265 66.2006 41.0678 68.1206 41.0678Z" stroke="#0A0A0A" stroke-width="0.6"/>
<defs>
<linearGradient id="paint0_linear_290_744" x1="42.9021" y1="1.42773" x2="42.9021" y2="52.4277" gradientUnits="userSpaceOnUse">
<stop stop-color="#AD73FF"/>
<stop offset="1" stop-color="#3949E0"/>
</linearGradient>
<linearGradient id="paint1_linear_290_744" x1="42.9021" y1="1.42773" x2="42.9021" y2="52.4277" gradientUnits="userSpaceOnUse">
<stop stop-color="#AD73FF"/>
<stop offset="1" stop-color="#3949E0"/>
</linearGradient>
</defs>
</svg>
