<svg width="20" height="20" viewBox="0 0 20 20" fill="none" xmlns="http://www.w3.org/2000/svg">
<path d="M10.2497 10.1833C10.6943 9.7984 11.051 9.32236 11.2954 8.78748C11.5398 8.25259 11.6663 7.67138 11.6663 7.08329C11.6663 5.97822 11.2274 4.91842 10.446 4.13701C9.66455 3.35561 8.60474 2.91663 7.49967 2.91663C6.39461 2.91663 5.3348 3.35561 4.5534 4.13701C3.77199 4.91842 3.33301 5.97822 3.33301 7.08329C3.333 7.67138 3.45951 8.25259 3.70395 8.78748C3.94838 9.32236 4.30503 9.7984 4.74967 10.1833C3.58312 10.7115 2.5934 11.5646 1.89882 12.6404C1.20425 13.7163 0.834234 14.9694 0.833008 16.25C0.833008 16.471 0.920805 16.6829 1.07709 16.8392C1.23337 16.9955 1.44533 17.0833 1.66634 17.0833C1.88735 17.0833 2.09932 16.9955 2.2556 16.8392C2.41188 16.6829 2.49967 16.471 2.49967 16.25C2.49967 14.9239 3.02646 13.6521 3.96414 12.7144C4.90182 11.7767 6.17359 11.25 7.49967 11.25C8.82576 11.25 10.0975 11.7767 11.0352 12.7144C11.9729 13.6521 12.4997 14.9239 12.4997 16.25C12.4997 16.471 12.5875 16.6829 12.7438 16.8392C12.9 16.9955 13.112 17.0833 13.333 17.0833C13.554 17.0833 13.766 16.9955 13.9223 16.8392C14.0785 16.6829 14.1663 16.471 14.1663 16.25C14.1651 14.9694 13.7951 13.7163 13.1005 12.6404C12.406 11.5646 11.4162 10.7115 10.2497 10.1833ZM7.49967 9.58329C7.00522 9.58329 6.52187 9.43667 6.11075 9.16197C5.69963 8.88726 5.37919 8.49682 5.18998 8.04C5.00076 7.58319 4.95125 7.08052 5.04771 6.59557C5.14417 6.11061 5.38228 5.66516 5.73191 5.31553C6.08154 4.96589 6.527 4.72779 7.01195 4.63133C7.4969 4.53487 7.99957 4.58438 8.45638 4.77359C8.9132 4.96281 9.30364 5.28324 9.57835 5.69437C9.85305 6.10549 9.99967 6.58884 9.99967 7.08329C9.99967 7.74633 9.73628 8.38222 9.26744 8.85106C8.7986 9.3199 8.16272 9.58329 7.49967 9.58329ZM15.6163 9.84996C16.1496 9.2494 16.498 8.50751 16.6195 7.71358C16.741 6.91965 16.6304 6.10752 16.3011 5.37496C15.9718 4.6424 15.4378 4.02062 14.7634 3.58448C14.089 3.14833 13.3028 2.91641 12.4997 2.91663C12.2787 2.91663 12.0667 3.00442 11.9104 3.1607C11.7541 3.31698 11.6663 3.52895 11.6663 3.74996C11.6663 3.97097 11.7541 4.18293 11.9104 4.33922C12.0667 4.4955 12.2787 4.58329 12.4997 4.58329C13.1627 4.58329 13.7986 4.84669 14.2674 5.31553C14.7363 5.78437 14.9997 6.42025 14.9997 7.08329C14.9985 7.52099 14.8824 7.95071 14.6631 8.32948C14.4437 8.70824 14.1287 9.02278 13.7497 9.24163C13.6261 9.31289 13.5229 9.41468 13.45 9.53724C13.377 9.65981 13.3367 9.79904 13.333 9.94163C13.3295 10.0831 13.3621 10.2231 13.4277 10.3485C13.4933 10.4739 13.5898 10.5805 13.708 10.6583L14.033 10.875L14.1413 10.9333C15.1458 11.4097 15.9933 12.1633 16.5838 13.1052C17.1744 14.0472 17.4835 15.1382 17.4747 16.25C17.4747 16.471 17.5625 16.6829 17.7188 16.8392C17.875 16.9955 18.087 17.0833 18.308 17.0833C18.529 17.0833 18.741 16.9955 18.8973 16.8392C19.0535 16.6829 19.1413 16.471 19.1413 16.25C19.1482 14.9712 18.8279 13.7118 18.2109 12.5917C17.5939 11.4715 16.7008 10.5277 15.6163 9.84996Z" fill="#5C6066"/>
</svg>
